<svg xmlns="http://www.w3.org/2000/svg" width="500" height="500" viewBox="100 0 175 275" preserveAspectRatio="xMidYMid meet">
  <defs>
    <clipPath id="clip1">
      <path d="M145 37.5h64V178h-64z"/>
    </clipPath>
    <clipPath id="clip2">
      <path d="M143 233h92v12.25h-92z"/>
    </clipPath>
  </defs>

  <!-- Groupe transformé pour zoom et centrage -->
  <g transform="scale(1.4) translate(-70, -20)">
    <path fill="#525252" d="M190.511 179.402c.801 7.23 1.5 14.508 2.102 21.742-.551-7.18-1.25-14.414-2.102-21.793zM187.16 182.543c-1.004-.152-1.953.496-2.051 1.445-.203.945.398 1.797 1.352 1.945.898.149 1.848-.5 2.047-1.445.204-.949-.397-1.797-1.348-1.945zM184.758 177.605c-1.051-32.316-6.754-64.387-15.258-95.359.602 1.55 1.153 3.093 1.703 4.691 4.348 12.469 7.801 25.332 10.653 38.352 3.254 15.012 5.703 30.274 7.656 45.582.352 2.793.649 5.637 1 8.426.852 7.383 1.551 14.664 2.102 21.899l-9.805-12.77c-.602-3.039-.102-6.184 1.398-8.926l.602-.051-.051-.898z" fill-opacity="1" fill-rule="evenodd"/>
    <g clip-path="url(#clip1)">
      <path fill="#525252" d="M159.246 54.867c14.559 43.938 22.461 84.887 23.66 122.887-.449-.199-.852-.398-1.301-.597-2.949-1.696-6.254-2.746-9.703-3.094 1.801-.996 3.902-1.348 5.851-.945-7.203-4.289-11.906-9.328-14.109-15.164 2.453 2.343 4.957 3.539 7.559 3.539-4.855-2.891-7.855-6.282-8.855-10.071 2.25 2.043 4.801 3.789 7.551 5.137-4.699-4.34-8.152-9.027-10.352-13.914l13.055 5.785c-6.852-4.84-11.504-9.277-14.008-13.316 1.75-5.836-.148-9.676-4.5-20.297l18.211 10.672-21.715-15.559c-1.347-8.73-1.851-18.554-1.55-29.426l8.504 5.734c-6.05-7.281-9.203-10.875-9.453-10.774-6.402-9.574-.203-28.824 6.602-38.05 15.609 10.422 32.316 22.941 38.121 37.55l-10.758 18.407 11.961-15.164c2.051 5.937 3.301 12.269 3.801 18.902-4.902 6.383-10.406 12.918-10.406 12.918 11.906-9.926 20.863-18.305 20.863-18.305-5.254 8.133-6.406 14.664-3.406 19.453l-.301 10.922c-5.699 8.328-13.555 18.852-13.555 18.852 7.602-8.527 16.41-19.203 16.41-19.203-2.555 14.715-2.855 24.09-.851 28.031-2.953 2.789-5.102 5.582-6.406 8.426 1.953-1.696 4.355-2.942 7.105-3.739-5.801 4.985-8.855 9.621-9.156 13.863 3.754-.2 6.254.797 7.457 2.941-5.051-1.195-9.504 1-13.356 6.535-6.054-52.867-17.011-93.812-32.968-122.937z" fill-opacity="1" fill-rule="evenodd"/>
    </g>
  </g>
</svg>
