<svg xmlns="http://www.w3.org/2000/svg" xmlns:xlink="http://www.w3.org/1999/xlink" width="500" zoomAndPan="magnify" viewBox="0 0 375 374.999991" height="500" preserveAspectRatio="xMidYMid meet" version="1.0"><defs><g/><clipPath id="17d05ec450"><path d="M 145 37.5 L 209 37.5 L 209 178 L 145 178 Z M 145 37.5 " clip-rule="nonzero"/></clipPath><clipPath id="02c40ea5e7"><path d="M 143 233 L 235 233 L 235 245.25 L 143 245.25 Z M 143 233 " clip-rule="nonzero"/></clipPath></defs><g fill="#525252" fill-opacity="1"><g transform="translate(93.621666, 307.08746)"><g><path d="M 12.828125 -4.796875 C 17.085938 -4.796875 19.21875 -6.5 19.21875 -9.90625 C 19.21875 -11.675781 18.273438 -12.988281 16.390625 -13.84375 C 15.398438 -14.34375 14.113281 -14.800781 12.53125 -15.21875 C 10.957031 -15.644531 9.644531 -16.078125 8.59375 -16.515625 C 7.550781 -16.960938 6.5 -17.578125 5.4375 -18.359375 C 3.34375 -19.921875 2.296875 -22.328125 2.296875 -25.578125 C 2.296875 -28.828125 3.421875 -31.382812 5.671875 -33.25 C 7.921875 -35.113281 10.863281 -36.046875 14.5 -36.046875 C 18.144531 -36.046875 21.523438 -35.316406 24.640625 -33.859375 L 24.640625 -25.875 L 19.21875 -25.5 L 19.21875 -28.59375 C 19.21875 -29.125 19.144531 -29.515625 19 -29.765625 C 18.613281 -30.429688 17.363281 -30.765625 15.25 -30.765625 C 13.132812 -30.765625 11.570312 -30.390625 10.5625 -29.640625 C 9.550781 -28.898438 9.046875 -27.75 9.046875 -26.1875 C 9.046875 -25.050781 9.472656 -24.054688 10.328125 -23.203125 C 10.890625 -22.640625 11.726562 -22.171875 12.84375 -21.796875 C 13.96875 -21.421875 15.160156 -21.035156 16.421875 -20.640625 C 17.679688 -20.253906 18.796875 -19.832031 19.765625 -19.375 C 20.742188 -18.914062 21.769531 -18.273438 22.84375 -17.453125 C 25 -15.859375 26.078125 -13.394531 26.078125 -10.0625 C 26.078125 -6.726562 24.878906 -4.101562 22.484375 -2.1875 C 20.085938 -0.269531 16.929688 0.6875 13.015625 0.6875 C 9.097656 0.6875 5.578125 -0.0351562 2.453125 -1.484375 L 2.453125 -9.90625 L 7.875 -10.28125 L 7.875 -7.03125 C 7.875 -6.5 7.941406 -6.109375 8.078125 -5.859375 C 8.222656 -5.609375 8.660156 -5.367188 9.390625 -5.140625 C 10.117188 -4.910156 11.265625 -4.796875 12.828125 -4.796875 Z M 12.828125 -4.796875 "/></g></g></g><g fill="#525252" fill-opacity="1"><g transform="translate(120.071073, 307.08746)"><g><path d="M 8.203125 -13.6875 C 8.203125 -10.664062 8.769531 -8.320312 9.90625 -6.65625 C 11.039062 -4.988281 12.679688 -4.15625 14.828125 -4.15625 C 16.972656 -4.15625 19.09375 -4.914062 21.1875 -6.4375 L 23.46875 -2.34375 C 20.957031 -0.28125 17.800781 0.75 14 0.75 C 10.195312 0.75 7.203125 -0.445312 5.015625 -2.84375 C 2.835938 -5.238281 1.75 -8.78125 1.75 -13.46875 C 1.75 -18.15625 3 -21.675781 5.5 -24.03125 C 8.007812 -26.394531 10.832031 -27.578125 13.96875 -27.578125 C 17.113281 -27.578125 20.035156 -26.847656 22.734375 -25.390625 L 22.734375 -18.46875 L 17.828125 -18.09375 L 17.828125 -20.65625 C 17.828125 -21.613281 17.476562 -22.207031 16.78125 -22.4375 C 16.09375 -22.664062 15.378906 -22.78125 14.640625 -22.78125 C 10.347656 -22.78125 8.203125 -19.75 8.203125 -13.6875 Z M 8.203125 -13.6875 "/></g></g></g><g fill="#525252" fill-opacity="1"><g transform="translate(143.806302, 307.08746)"><g><path d="M 5.0625 -5.96875 L 5.0625 -20.703125 C 5.0625 -21.273438 4.960938 -21.675781 4.765625 -21.90625 C 4.566406 -22.132812 4.21875 -22.269531 3.71875 -22.3125 L 1.484375 -22.46875 L 1.484375 -26.78125 L 10.484375 -26.78125 L 10.484375 -22.78125 C 11.128906 -24.164062 12.125 -25.3125 13.46875 -26.21875 C 14.8125 -27.125 16.363281 -27.578125 18.125 -27.578125 C 19.882812 -27.578125 21.5625 -27.1875 23.15625 -26.40625 L 23.15625 -18.46875 L 18.203125 -18.09375 L 18.203125 -20.546875 C 18.203125 -21.253906 18.023438 -21.695312 17.671875 -21.875 C 17.285156 -22.050781 16.804688 -22.140625 16.234375 -22.140625 C 14.816406 -22.140625 13.65625 -21.632812 12.75 -20.625 C 11.84375 -19.613281 11.390625 -18.328125 11.390625 -16.765625 L 11.390625 -4.421875 L 16.03125 -4.203125 L 16.03125 0 L 1.75 0 L 1.75 -4.046875 L 3.515625 -4.203125 C 4.046875 -4.273438 4.4375 -4.425781 4.6875 -4.65625 C 4.9375 -4.882812 5.0625 -5.320312 5.0625 -5.96875 Z M 5.0625 -5.96875 "/></g></g></g><g fill="#525252" fill-opacity="1"><g transform="translate(167.062562, 307.08746)"><g><path d="M 11.390625 -26.78125 L 11.390625 -4.421875 L 14.421875 -4.265625 L 14.421875 0 L 1.75 0 L 1.75 -4.046875 L 3.515625 -4.203125 C 4.546875 -4.304688 5.0625 -4.875 5.0625 -5.90625 L 5.0625 -20.703125 C 5.0625 -21.304688 4.960938 -21.710938 4.765625 -21.921875 C 4.566406 -22.140625 4.21875 -22.25 3.71875 -22.25 L 1.859375 -22.359375 L 1.859375 -26.78125 Z M 4.671875 -31.375 C 3.929688 -32.101562 3.5625 -33.035156 3.5625 -34.171875 C 3.5625 -35.304688 3.929688 -36.253906 4.671875 -37.015625 C 5.421875 -37.785156 6.398438 -38.171875 7.609375 -38.171875 C 8.816406 -38.171875 9.800781 -37.785156 10.5625 -37.015625 C 11.332031 -36.253906 11.71875 -35.304688 11.71875 -34.171875 C 11.71875 -33.035156 11.332031 -32.101562 10.5625 -31.375 C 9.800781 -30.65625 8.816406 -30.296875 7.609375 -30.296875 C 6.398438 -30.296875 5.421875 -30.65625 4.671875 -31.375 Z M 4.671875 -31.375 "/></g></g></g><g fill="#525252" fill-opacity="1"><g transform="translate(181.484451, 307.08746)"><g><path d="M 4.09375 -1.59375 L 4.09375 -32.15625 C 4.09375 -32.96875 3.648438 -33.394531 2.765625 -33.4375 L 0.90625 -33.53125 L 0.90625 -37.953125 L 10.28125 -37.953125 L 10.28125 -25.34375 C 11.875 -26.832031 14.019531 -27.578125 16.71875 -27.578125 C 20.050781 -27.578125 22.691406 -26.445312 24.640625 -24.1875 C 26.597656 -21.9375 27.578125 -18.769531 27.578125 -14.6875 C 27.578125 -4.4375 23.28125 0.6875 14.6875 0.6875 C 12.84375 0.6875 10.898438 0.460938 8.859375 0.015625 C 6.816406 -0.421875 5.226562 -0.957031 4.09375 -1.59375 Z M 10.28125 -18.84375 L 10.28125 -5.0625 C 11.625 -4.351562 13.179688 -4 14.953125 -4 C 19.003906 -4 21.03125 -7.28125 21.03125 -13.84375 C 21.03125 -19.84375 19.039062 -22.84375 15.0625 -22.84375 C 13.789062 -22.84375 12.675781 -22.46875 11.71875 -21.71875 C 10.757812 -20.976562 10.28125 -20.019531 10.28125 -18.84375 Z M 10.28125 -18.84375 "/></g></g></g><g fill="#525252" fill-opacity="1"><g transform="translate(209.743298, 307.08746)"><g><path d="M 15.125 -27.578125 C 17.78125 -27.578125 19.890625 -26.925781 21.453125 -25.625 C 23.015625 -24.332031 23.796875 -22.515625 23.796875 -20.171875 C 23.796875 -18.609375 23.457031 -17.234375 22.78125 -16.046875 C 22.101562 -14.859375 21.269531 -13.925781 20.28125 -13.25 C 19.289062 -12.582031 18.082031 -12.035156 16.65625 -11.609375 C 14.28125 -10.898438 11.601562 -10.546875 8.625 -10.546875 C 8.726562 -8.660156 9.3125 -7.140625 10.375 -5.984375 C 11.445312 -4.835938 13.082031 -4.265625 15.28125 -4.265625 C 17.476562 -4.265625 19.675781 -5.039062 21.875 -6.59375 L 23.90625 -2.296875 C 23.195312 -1.648438 22 -0.988281 20.3125 -0.3125 C 18.625 0.351562 16.695312 0.6875 14.53125 0.6875 C 10.195312 0.6875 7.019531 -0.507812 5 -2.90625 C 2.976562 -5.300781 1.96875 -8.59375 1.96875 -12.78125 C 1.96875 -16.96875 3.117188 -20.476562 5.421875 -23.3125 C 7.734375 -26.15625 10.96875 -27.578125 15.125 -27.578125 Z M 12.6875 -15.40625 C 13.988281 -15.632812 15.1875 -16.148438 16.28125 -16.953125 C 17.382812 -17.753906 17.9375 -18.703125 17.9375 -19.796875 C 17.9375 -21.960938 16.875 -23.046875 14.75 -23.046875 C 12.757812 -23.046875 11.234375 -22.253906 10.171875 -20.671875 C 9.109375 -19.097656 8.519531 -17.210938 8.40625 -15.015625 C 9.96875 -15.046875 11.394531 -15.175781 12.6875 -15.40625 Z M 12.6875 -15.40625 "/></g></g></g><g fill="#525252" fill-opacity="1"><g transform="translate(234.170372, 307.08746)"><g><path d="M 5.0625 -5.96875 L 5.0625 -20.703125 C 5.0625 -21.273438 4.960938 -21.675781 4.765625 -21.90625 C 4.566406 -22.132812 4.21875 -22.269531 3.71875 -22.3125 L 1.484375 -22.46875 L 1.484375 -26.78125 L 10.484375 -26.78125 L 10.484375 -22.78125 C 11.128906 -24.164062 12.125 -25.3125 13.46875 -26.21875 C 14.8125 -27.125 16.363281 -27.578125 18.125 -27.578125 C 19.882812 -27.578125 21.5625 -27.1875 23.15625 -26.40625 L 23.15625 -18.46875 L 18.203125 -18.09375 L 18.203125 -20.546875 C 18.203125 -21.253906 18.023438 -21.695312 17.671875 -21.875 C 17.285156 -22.050781 16.804688 -22.140625 16.234375 -22.140625 C 14.816406 -22.140625 13.65625 -21.632812 12.75 -20.625 C 11.84375 -19.613281 11.390625 -18.328125 11.390625 -16.765625 L 11.390625 -4.421875 L 16.03125 -4.203125 L 16.03125 0 L 1.75 0 L 1.75 -4.046875 L 3.515625 -4.203125 C 4.046875 -4.273438 4.4375 -4.425781 4.6875 -4.65625 C 4.9375 -4.882812 5.0625 -5.320312 5.0625 -5.96875 Z M 5.0625 -5.96875 "/></g></g></g><g fill="#525252" fill-opacity="1"><g transform="translate(257.426637, 307.08746)"><g><path d="M 15.125 -27.578125 C 17.78125 -27.578125 19.890625 -26.925781 21.453125 -25.625 C 23.015625 -24.332031 23.796875 -22.515625 23.796875 -20.171875 C 23.796875 -18.609375 23.457031 -17.234375 22.78125 -16.046875 C 22.101562 -14.859375 21.269531 -13.925781 20.28125 -13.25 C 19.289062 -12.582031 18.082031 -12.035156 16.65625 -11.609375 C 14.28125 -10.898438 11.601562 -10.546875 8.625 -10.546875 C 8.726562 -8.660156 9.3125 -7.140625 10.375 -5.984375 C 11.445312 -4.835938 13.082031 -4.265625 15.28125 -4.265625 C 17.476562 -4.265625 19.675781 -5.039062 21.875 -6.59375 L 23.90625 -2.296875 C 23.195312 -1.648438 22 -0.988281 20.3125 -0.3125 C 18.625 0.351562 16.695312 0.6875 14.53125 0.6875 C 10.195312 0.6875 7.019531 -0.507812 5 -2.90625 C 2.976562 -5.300781 1.96875 -8.59375 1.96875 -12.78125 C 1.96875 -16.96875 3.117188 -20.476562 5.421875 -23.3125 C 7.734375 -26.15625 10.96875 -27.578125 15.125 -27.578125 Z M 12.6875 -15.40625 C 13.988281 -15.632812 15.1875 -16.148438 16.28125 -16.953125 C 17.382812 -17.753906 17.9375 -18.703125 17.9375 -19.796875 C 17.9375 -21.960938 16.875 -23.046875 14.75 -23.046875 C 12.757812 -23.046875 11.234375 -22.253906 10.171875 -20.671875 C 9.109375 -19.097656 8.519531 -17.210938 8.40625 -15.015625 C 9.96875 -15.046875 11.394531 -15.175781 12.6875 -15.40625 Z M 12.6875 -15.40625 "/></g></g></g><path fill="#525252" d="M 190.511719 179.402344 C 191.3125 186.632812 192.011719 193.910156 192.613281 201.144531 C 192.0625 193.964844 191.363281 186.730469 190.511719 179.351562 Z M 187.160156 182.542969 C 186.207031 182.390625 185.257812 183.039062 185.109375 183.988281 C 184.90625 184.933594 185.507812 185.785156 186.460938 185.933594 C 187.359375 186.082031 188.308594 185.433594 188.507812 184.488281 C 188.710938 183.539062 188.109375 182.691406 187.160156 182.542969 Z M 184.757812 177.605469 C 183.707031 145.289062 178.003906 113.21875 169.5 82.246094 C 170.101562 83.796875 170.652344 85.339844 171.203125 86.9375 C 175.550781 99.40625 179.003906 112.269531 181.855469 125.289062 C 185.109375 140.300781 187.558594 155.5625 189.511719 170.871094 C 189.863281 173.664062 190.160156 176.507812 190.511719 179.296875 C 191.363281 186.679688 192.0625 193.960938 192.613281 201.195312 L 182.808594 188.425781 C 182.207031 185.386719 182.707031 182.242188 184.207031 179.5 L 184.808594 179.449219 L 184.757812 178.550781 Z M 184.757812 177.605469 " fill-opacity="1" fill-rule="evenodd"/><g clip-path="url(#17d05ec450)"><path fill="#525252" d="M 159.246094 54.867188 C 173.804688 98.804688 181.707031 139.753906 182.90625 177.753906 C 182.457031 177.554688 182.054688 177.355469 181.605469 177.15625 C 178.65625 175.460938 175.351562 174.410156 171.902344 174.0625 C 173.703125 173.066406 175.804688 172.714844 177.753906 173.117188 C 170.550781 168.828125 165.847656 163.789062 163.644531 157.953125 C 166.097656 160.296875 168.601562 161.492188 171.203125 161.492188 C 166.347656 158.601562 163.347656 155.210938 162.347656 151.421875 C 164.597656 153.464844 167.148438 155.210938 169.898438 156.558594 C 165.199219 152.21875 161.746094 147.53125 159.546875 142.644531 L 172.601562 148.429688 C 165.75 143.589844 161.097656 139.152344 158.59375 135.113281 C 160.34375 129.277344 158.445312 125.4375 154.09375 114.816406 L 172.304688 125.488281 L 150.589844 109.929688 C 149.242188 101.199219 148.738281 91.375 149.039062 80.503906 L 157.542969 86.238281 C 151.492188 78.957031 148.339844 75.363281 148.089844 75.464844 C 141.6875 65.890625 147.886719 46.640625 154.691406 37.414062 C 170.300781 47.835938 187.007812 60.355469 192.8125 74.964844 L 182.054688 93.371094 L 194.015625 78.207031 C 196.066406 84.144531 197.316406 90.476562 197.816406 97.109375 C 192.914062 103.492188 187.410156 110.027344 187.410156 110.027344 C 199.316406 100.101562 208.273438 91.722656 208.273438 91.722656 C 203.019531 99.855469 201.867188 106.386719 204.867188 111.175781 L 204.566406 122.097656 C 198.867188 130.425781 191.011719 140.949219 191.011719 140.949219 C 198.613281 132.421875 207.421875 121.746094 207.421875 121.746094 C 204.867188 136.460938 204.566406 145.835938 206.570312 149.777344 C 203.617188 152.566406 201.46875 155.359375 200.164062 158.203125 C 202.117188 156.507812 204.519531 155.261719 207.269531 154.464844 C 201.46875 159.449219 198.414062 164.085938 198.113281 168.328125 C 201.867188 168.128906 204.367188 169.125 205.570312 171.269531 C 200.519531 170.074219 196.066406 172.269531 192.214844 177.804688 C 186.160156 124.9375 175.203125 83.992188 159.246094 54.867188 Z M 159.246094 54.867188 " fill-opacity="1" fill-rule="evenodd"/></g><g clip-path="url(#02c40ea5e7)"><path fill="#525252" d="M 217.324219 236.101562 C 228.230469 236.601562 235.132812 237.402344 234.785156 238.347656 C 234.382812 239.347656 224.929688 240.246094 211.222656 240.742188 C 218.675781 241.289062 223.226562 242.039062 222.878906 242.839844 C 222.277344 244.382812 205.269531 245.679688 184.808594 245.679688 C 164.347656 245.679688 148.289062 244.382812 148.890625 242.839844 C 149.191406 241.992188 154.742188 241.191406 163.148438 240.691406 C 150.742188 240.195312 142.738281 239.347656 143.085938 238.347656 C 143.488281 237.402344 151.441406 236.554688 163.398438 236.054688 C 157.542969 235.753906 154.09375 235.308594 154.292969 234.859375 C 154.644531 233.910156 171.5 233.113281 191.960938 233.113281 C 212.371094 233.113281 228.679688 233.910156 228.28125 234.859375 C 228.128906 235.359375 223.925781 235.753906 217.324219 236.101562 Z M 190.660156 241.839844 C 193.0625 241.839844 195.011719 242.1875 195.011719 242.636719 C 195.011719 243.089844 193.0625 243.4375 190.660156 243.4375 C 188.261719 243.4375 186.308594 243.089844 186.308594 242.636719 C 186.308594 242.191406 188.261719 241.839844 190.660156 241.839844 Z M 160.796875 237.902344 C 162.347656 237.902344 163.644531 238.097656 163.644531 238.347656 C 163.644531 238.648438 162.347656 238.847656 160.796875 238.847656 C 159.195312 238.847656 157.945312 238.648438 157.945312 238.347656 C 157.945312 238.097656 159.195312 237.902344 160.796875 237.902344 Z M 160.796875 237.902344 " fill-opacity="1" fill-rule="evenodd"/></g><path fill="#525252" d="M 190.960938 193.8125 C 179.855469 193.660156 175.203125 195.957031 177.054688 200.542969 C 170.75 201.292969 167.199219 203.539062 166.351562 207.230469 L 161.648438 229.421875 C 161.347656 236.003906 171.101562 239.398438 190.960938 239.695312 C 210.820312 239.398438 220.578125 236.003906 220.277344 229.421875 L 215.574219 207.230469 C 214.722656 203.539062 211.171875 201.292969 204.867188 200.542969 C 206.667969 195.957031 202.066406 193.660156 190.960938 193.8125 Z M 194.664062 201.941406 C 187.808594 202.140625 182.15625 201.542969 177.753906 200.097656 C 181.304688 202.59375 186.960938 203.191406 194.664062 201.941406 Z M 191.710938 195.507812 C 198.214844 196.007812 201.867188 197.554688 202.71875 200.195312 C 203.316406 196.65625 199.617188 195.109375 191.710938 195.507812 Z M 173.804688 206.980469 C 171.601562 207.378906 169.25 210.371094 166.75 215.855469 C 167.949219 207.078125 171.5 202.941406 177.304688 203.539062 C 181.804688 204.1875 186.707031 204.636719 192.011719 204.9375 C 183.15625 205.679688 178.707031 206.082031 178.707031 206.082031 C 175.703125 209.574219 174.503906 216.902344 175.054688 228.074219 C 172.800781 220.496094 172.351562 213.460938 173.804688 206.980469 Z M 173.804688 206.980469 " fill-opacity="1" fill-rule="evenodd"/></svg>