<svg viewBox="0 0 375 375" xmlns="http://www.w3.org/2000/svg" preserveAspectRatio="xMidYMid meet">
 <g id="Layer_1">
  <title>Layer 1</title>
  <g stroke="null" id="svg_7" clip-path="url(#e8108627d4)">
   <path stroke="null" id="svg_1" fill-rule="evenodd" d="m142.08232,305.03314c4.84654,-6.19946 10.38666,-12.87845 15.31027,-19.29196c4.59821,-5.99396 8.65697,-11.74814 11.06311,-16.64606c0.33395,-0.67645 0.63365,-1.33578 0.90765,-1.978c-2.31195,-2.13214 -3.99025,-4.64105 -4.4184,-7.09c-0.10275,-0.58228 -0.16269,-1.54129 0.0685,-2.28625c0.2312,-0.74496 0.70215,-1.31012 1.46425,-1.50705c1.28441,-0.34251 2.5517,-0.01715 3.70769,0.90765c0.12843,0.10275 0.25688,0.21405 0.37675,0.33395c0.01712,-0.64221 0.04282,-1.2673 0.08563,-1.87526c-5.30893,-2.56883 -10.18971,-5.60007 -13.9231,-8.63129c-3.93887,-3.19392 -6.6019,-6.42209 -7.34686,-9.09367c-0.59084,-2.10645 -0.11131,-3.93889 1.65262,-5.32605c1.79819,-1.42143 4.15295,-1.78963 6.85022,-1.28442c3.69057,0.68503 8.07471,3.04836 12.39891,6.28508c1.71257,1.27586 3.41655,2.68872 5.06061,4.18721c1.19879,-1.80675 2.57741,-3.45081 4.07588,-4.95786c-4.63246,-1.96088 -8.90529,-4.24715 -12.28758,-6.59335c-3.88751,-2.69727 -6.61047,-5.50586 -7.52669,-7.94626c-0.72784,-1.94376 -0.44527,-3.70769 1.05322,-5.17192c2.23488,-2.18352 5.95969,-2.61165 10.47227,-1.57555c6.2594,1.43854 14.1286,5.62575 21.28709,10.8576c0.23119,0.17125 0.47095,0.34251 0.70215,0.51376c0.83058,-0.47951 1.66974,-0.95047 2.4832,-1.4043c1.78963,-1.00185 3.5193,-1.95232 5.10342,-2.88565c-2.03795,-0.69359 -4.0502,-1.43855 -6.05389,-2.14926c-6.45634,-2.30339 -13.07538,-4.88078 -18.78674,-8.73404c-4.64104,-3.12541 -7.50957,-5.87407 -8.98236,-8.1689c-1.11317,-1.72968 -1.47281,-3.26242 -1.28442,-4.53827c0.31682,-2.14926 2.20064,-3.76764 5.30037,-4.49547c4.04163,-0.95903 10.25821,-0.48808 17.03993,1.6783c6.39641,2.04651 13.30656,5.60863 19.3262,10.84906c-2.86853,-5.66856 -8.99092,-8.50285 -15.44725,-11.183c-4.49547,-1.86668 -9.17931,-3.63919 -13.19525,-6.09671c-4.15295,-2.54314 -7.60376,-5.80556 -9.49614,-10.5836c-3.80186,-9.62457 0.5052,-17.75064 5.09486,-25.53423c2.17494,-3.69055 4.40128,-7.31261 5.71138,-10.99461c1.24159,-3.5193 1.62692,-7.09854 0.19695,-10.87473c-24.33543,-64.40927 36.18633,-164.48254 120.99217,-117.07896c28.40271,15.88397 45.24573,53.32047 33.17218,90.82546c-8.00616,24.88345 -28.75378,49.81828 -67.39764,68.41665c-3.16827,1.52417 -5.50586,4.47833 -7.5267,8.05757c-3.18533,5.66 -5.55724,12.84418 -8.75117,18.87239c-2.79147,5.24898 -6.21658,9.616 -11.19156,11.53406c-3.39087,1.31012 -7.53525,1.49849 -12.73285,-0.01712c0.70215,2.79147 0.39389,5.77988 -1.37862,9.05086c-1.21591,2.21777 -3.11685,3.41656 -5.31749,3.9817c0.79634,3.03978 0.84772,6.19945 -0.48808,9.22212c-1.8838,4.26427 -5.83981,6.6019 -10.90898,7.45818c0.2997,0.42815 0.58228,0.85628 0.83916,1.27586c2.47464,3.96457 3.37373,7.6123 2.22632,10.33528c-2.9456,6.9958 -10.06984,9.3163 -18.62405,8.62273c-0.88197,-0.06851 -1.78105,-0.17126 -2.69728,-0.30826c0.29114,1.1217 0.38533,2.12357 0.26546,2.96271c-0.44527,3.09119 -1.74681,5.112 -3.49362,6.31934c-2.56027,1.76395 -6.18233,1.77249 -9.79582,0.5737c-0.82204,-0.27399 -1.64406,-0.60794 -2.44896,-0.99326c0.19695,6.97867 -1.66974,15.35306 -7.09856,22.33173c-4.04163,5.1976 -10.04414,9.62457 -18.64973,12.10779c-1.94376,0.56512 -3.91319,1.07889 -5.8912,1.54129c-1.84099,2.36334 -3.57924,4.65814 -5.1291,6.82455c-3.69913,5.18903 -6.37071,9.66736 -6.85022,12.86984c-3.32237,22.00638 12.31328,34.37958 36.40039,40.12521c40.17659,9.59033 103.75526,0.77921 145.28477,-14.13715c17.63931,-6.33646 31.28842,-13.74329 37.35086,-21.34702c0.34253,-0.43671 0.98471,-0.50522 1.41287,-0.16272c0.43668,0.35107 0.50522,0.98474 0.16266,1.41287c-6.21655,7.80069 -20.15677,15.49863 -38.24997,21.98923c-41.85486,15.03625 -105.93874,23.87305 -146.42358,14.20566c-25.29446,-6.03674 -41.4182,-19.28339 -37.93314,-42.38577c0.52232,-3.40799 3.27098,-8.22028 7.20985,-13.73471c1.14742,-1.6098 2.38902,-3.27954 3.70769,-5.00067c-10.00989,2.02081 -20.35373,2.57739 -30.39787,0.81348c-25.26022,-4.43552 -41.34113,-14.59955 -50.76019,-28.6254c-14.0601,-20.95313 -13.22094,-50.64886 -5.58294,-83.12752c4.17864,-17.7849 12.24478,-35.69824 13.66621,-53.98836c1.05322,-13.53777 3.24529,-33.04379 -1.22448,-48.1571c-2.91135,-9.81295 -8.65697,-17.75066 -19.54884,-20.78188c-8.34015,-2.32052 -14.35123,-1.42999 -21.88648,2.94559c-0.47952,0.28257 -1.1046,0.11988 -1.37861,-0.3682c-0.28257,-0.47952 -0.11988,-1.09603 0.35964,-1.37004c8.07471,-4.69241 14.51392,-5.63432 23.44491,-3.15111c11.62826,3.23673 17.82771,11.67107 20.936,22.16048c4.53828,15.33595 2.37189,35.1331 1.3101,48.87637c-1.42999,18.39287 -9.51325,36.40897 -13.72614,54.29662c-7.48387,31.85356 -8.49428,60.99274 5.30036,81.5434c9.16219,13.64908 24.85777,23.44492 49.44153,27.76056c10.56647,1.85812 21.48402,1.07034 31.9563,-1.29297zm30.7404,-35.29581c-0.63365,-0.39389 -1.25873,-0.82202 -1.84956,-1.27585c-0.22263,0.50519 -0.45383,1.01041 -0.71071,1.52417c-2.45752,4.9921 -6.58478,10.86618 -11.26863,16.98001c-4.40126,5.73706 -9.29918,11.67963 -13.75183,17.30536c1.11317,-0.28256 2.21777,-0.58224 3.32237,-0.90765c8.11751,-2.34619 13.80321,-6.50769 17.62221,-11.40561c5.4288,-6.97867 7.08142,-15.44727 6.63615,-22.22043zm15.32739,-8.11752c-5.10342,-0.98471 -10.47229,-2.81717 -15.54146,-5.10342c-0.05994,1.25873 -0.05138,2.56885 0.04282,3.93887c0.05138,0.1199 0.11131,0.2312 0.16269,0.35107c0.93335,2.03796 1.61836,4.70099 1.9095,7.71509c1.05322,0.58228 2.1407,1.06177 3.22816,1.42142c2.95416,0.98471 5.92545,1.12173 8.02333,-0.32538c1.35292,-0.93335 2.29483,-2.54315 2.63734,-4.94073c0.12843,-0.85629 -0.05138,-1.88382 -0.46239,-3.05692zm18.17879,-19.27483c-1.36148,0.11131 -2.78291,0.13699 -4.24715,0.0685c-6.47346,-0.28258 -13.86314,-2.16638 -20.65343,-4.82085c-1.71257,1.66118 -3.271,3.49362 -4.58966,5.53156c4.94073,4.71809 9.26494,10.06128 11.6882,14.50536c0.41101,0.76208 0.77065,1.50705 1.07034,2.2092c1.22449,0.21408 2.43184,0.35965 3.60493,0.4624c7.57806,0.60794 13.99159,-1.20737 16.60324,-7.39825c0.95047,-2.25201 -0.03426,-5.21474 -2.07219,-8.49428c-0.42815,-0.67647 -0.89053,-1.36148 -1.4043,-2.06363zm11.70532,-16.62038c-2.09789,0.20552 -4.30708,-0.00856 -6.26796,-0.29112c-2.90279,-0.41101 -5.74562,-1.15598 -8.56277,-2.03795c-1.98657,1.24161 -4.24715,2.49178 -6.61903,3.819c-0.57372,0.32539 -1.14742,0.64221 -1.72969,0.97617c4.87222,3.81044 9.2735,8.03189 12.40747,12.0564c4.82942,-0.58228 8.65698,-2.50034 10.40379,-6.44778c1.16454,-2.64589 1.09604,-5.41167 0.36819,-8.07471zm6.29366,-14.14571c-1.72969,-0.63365 -3.56212,-1.44711 -5.51443,-2.44896c-11.70534,-6.00252 -18.2216,-13.11819 -21.20146,-20.58493c-2.80003,-7.02148 -2.47464,-14.37692 -0.28258,-21.4926c3.21962,-10.48085 10.52367,-20.43936 17.63934,-27.94893c5.00923,-5.29179 10.24965,-10.91756 16.38062,-14.89925c0.8477,-0.54801 1.79817,-1.13885 2.85997,-1.77249c7.56094,-8.14321 15.10474,-16.63749 21.24426,-25.2174c10.74632,-15.02769 17.20265,-30.29514 11.28572,-44.32954c-0.11127,-0.24832 -0.22263,-0.5052 -0.33392,-0.76208c-0.71069,-0.37676 -1.36145,-0.76209 -1.9523,-1.14742c-1.25015,-0.83915 -6.94443,-6.55053 -8.43433,-9.0423c-0.33397,-0.55658 -0.47954,-1.02753 -0.48811,-1.33579c-0.00854,-0.39389 0.12845,-0.69358 0.34253,-0.91622c0.1884,-0.19695 0.47093,-0.3682 0.88194,-0.38533c0.31686,-0.01712 0.83917,0.08563 1.60126,0.44527c4.34988,2.0465 7.54382,6.58478 9.59888,10.92611c5.88263,2.97985 15.52432,5.56581 23.45349,8.69122c0.75351,0.2997 1.49847,0.5994 2.21771,0.90766c0.55658,-0.68502 1.3187,-1.3358 2.33768,-1.92663c1.96085,-1.13885 3.75049,-1.37861 5.33463,-1.02753c1.5755,0.34251 2.97125,1.29298 4.11865,2.63734c3.20248,3.75906 4.4527,10.66924 3.02271,14.62524c-1.70404,4.70953 -7.8949,10.42947 -16.2265,16.3121c-17.42526,12.31329 -44.20964,25.64555 -56.8055,33.17223c-12.56161,13.48638 -25.08897,25.97092 -31.16855,36.18633c-4.26427,7.18417 -7.18417,16.49191 -3.81044,24.5238c1.05322,2.51746 3.4765,4.89792 6.38785,7.30406c4.60677,3.81044 10.43803,7.62944 14.60811,11.88515c1.87524,1.9095 3.41655,3.90463 4.40984,6.0282c5.33461,1.81531 9.49611,1.80675 12.86128,0.51376c4.54684,-1.75537 7.59521,-5.81413 10.13834,-10.60072c3.20248,-6.03677 5.58295,-13.24663 8.77684,-18.91519c2.24347,-3.97313 4.8894,-7.20131 8.40869,-8.88817c38.01019,-18.29012 58.48383,-42.74542 66.35303,-67.21786c11.75671,-36.52028 -4.58112,-72.98918 -32.23889,-88.445c-82.89633,-46.35036 -141.91104,51.63359 -118.12363,114.60431c1.6098,4.25571 1.21591,8.28879 -0.18839,12.25336c-1.34435,3.80186 -3.62206,7.54381 -5.87407,11.35425c-4.27283,7.25267 -8.50284,14.78793 -4.94928,23.76172c1.72112,4.3499 4.88934,7.2955 8.6741,9.60745c3.92175,2.40614 8.5114,4.12726 12.91267,5.95114c8.30589,3.45079 15.91821,7.32117 17.90479,16.11516c2.19206,2.26913 4.21289,4.81229 5.99394,7.6123c1.12173,1.78963 2.15782,3.74194 2.90279,5.77132c1.71255,-0.41957 3.2196,-1.30153 4.15295,-3.0141c1.76393,-3.25385 1.81531,-6.17377 0.78778,-8.87103zm-21.39841,9.616c1.48137,-0.96759 2.77434,-1.93518 3.79332,-2.94559c1.45567,-1.45567 2.32907,-2.98842 2.21776,-4.80373c-0.05994,-0.83916 -0.15413,-1.6355 -0.30826,-2.38902c-6.37071,-6.45634 -14.17142,-10.68636 -21.30421,-12.97261c-6.36215,-2.03795 -12.18484,-2.53459 -15.96959,-1.64406c-1.91806,0.45383 -3.28812,1.22447 -3.69057,2.47464c-0.24832,0.79634 -0.0685,1.75537 0.52234,2.86853c1.20735,2.26057 4.00739,5.00923 8.79398,8.23741c5.57437,3.75905 12.03928,6.25938 18.34149,8.50284c2.5089,0.89909 5.04347,1.841 7.60374,2.67159zm-21.92929,14.06866c3.15111,-2.84285 6.70467,-5.20618 10.22397,-7.2955c-6.91873,-5.04347 -14.50536,-9.11937 -20.55069,-10.50653c-3.69911,-0.84772 -6.78172,-0.74496 -8.61415,1.04466c-1.13029,1.11316 -0.98473,2.5089 -0.06851,4.04163c1.13029,1.9095 3.36517,3.95601 6.28508,5.98538c3.4765,2.41472 7.92058,4.76091 12.7243,6.73036zm-10.12122,18.21304c0.53946,-3.78476 1.73825,-7.09 3.39087,-9.99278c-1.68687,-1.54985 -3.43369,-3.00552 -5.18904,-4.3242c-4.0502,-3.02266 -8.12608,-5.27467 -11.56833,-5.91689c-2.05507,-0.38531 -3.87038,-0.19695 -5.24042,0.89053c-1.3615,1.07892 -1.3615,2.60309 -0.51378,4.33276c1.04466,2.1407 3.26242,4.52972 6.23372,6.93587c3.47649,2.82571 7.98051,5.65143 12.88698,8.07471zm-0.77065,11.59401c0.45383,-1.46423 0.65933,-2.80859 0.56514,-3.99026c0,-0.0257 0,-0.05136 0,-0.07706c-0.52232,-0.99329 -1.1046,-1.77249 -1.74681,-2.29483c-0.60796,-0.47952 -1.25873,-0.71072 -1.93518,-0.53088c-0.0257,0.00854 -0.01712,0.05136 -0.0257,0.0856c-0.03424,0.07709 -0.05138,0.15414 -0.0685,0.24832c-0.0685,0.41104 -0.0257,0.86487 0.03426,1.16455c0.29112,1.65262 1.27585,3.31381 2.63733,4.83798c0.17982,0.18839 0.35107,0.37677 0.53946,0.55658zm2.05507,0.10275c-0.11987,0.44525 -0.26544,0.89908 -0.42815,1.36148c0.26546,0.20551 0.5309,0.41101 0.81348,0.60794c-0.11133,-0.685 -0.23976,-1.33578 -0.38533,-1.96942zm3.62206,-20.26811c-1.49849,2.76578 -2.55171,5.89975 -2.9884,9.48756c4.65814,2.15781 9.60744,3.93033 14.36835,4.97498c-0.12845,-0.2569 -0.26544,-0.51376 -0.41101,-0.77066c-2.28627,-4.20432 -6.3279,-9.21355 -10.96893,-13.69188zm17.17694,-15.63565c-3.36517,1.96088 -6.8074,4.16151 -9.87288,6.81598c6.31076,2.38045 13.10106,4.05876 19.07788,4.31564c0.90765,0.04282 1.78963,0.05138 2.65446,0.01712c-3.09973,-3.75049 -7.28693,-7.638 -11.85947,-11.14874zm17.99898,-15.67845c0.05994,2.26057 -0.97615,4.24713 -2.81715,6.07957c-0.77921,0.77921 -1.71255,1.53273 -2.76578,2.28625c2.20064,0.63365 4.4184,1.16455 6.67041,1.48137c1.66974,0.23976 3.53642,0.44527 5.32605,0.32538c-0.69359,-1.75537 -1.61836,-3.44223 -2.59453,-4.9921c-1.1731,-1.84956 -2.44896,-3.57924 -3.819,-5.18048zm-12.00502,-27.2211c0.16269,0.47952 0.33395,0.95903 0.53088,1.42999c2.82573,7.1071 9.09369,13.82889 20.24243,19.54027c1.09604,0.56514 2.14926,1.06178 3.15967,1.49849c-1.6098,-2.42326 -3.99026,-4.66672 -6.60191,-6.8331c-4.05019,-3.35661 -8.69122,-6.49916 -12.2619,-9.66739c-2.20064,-1.96088 -4.00739,-3.93887 -5.06917,-5.96826zm28.5312,-56.77126c-3.95601,3.33092 -7.56094,7.19273 -11.06313,10.8833c-4.31564,4.56396 -8.71692,10.0527 -12.17628,16.01241c5.34319,-7.9377 13.98303,-17.0742 23.23941,-26.89571zm68.07413,-68.46803c2.08078,0.97616 3.95602,2.00369 5.48019,3.11686c1.76395,1.28442 3.07404,2.68015 3.79333,4.17863c0.59082,1.23304 0.84766,2.20064 0.87335,2.91991c0.0257,0.66789 -0.12842,1.18166 -0.38531,1.57555c-0.39386,0.62508 -1.07031,0.99329 -1.96942,1.04466c-0.92477,0.05138 -2.16638,-0.26545 -3.48505,-0.90765c-2.01227,-0.98472 -4.23859,-2.72297 -5.71997,-4.71809c-1.45563,-1.95232 -2.16638,-4.16151 -1.54126,-6.20802c0.00851,-0.03425 0.01709,-0.0685 0.03424,-0.10276c-0.64221,-0.26545 -1.30157,-0.53089 -1.96948,-0.79634c-7.10709,-2.80859 -15.56714,-5.20617 -21.56104,-7.82639c5.26608,14.27416 -1.14743,29.7728 -12.02216,44.98031c-5.01781,7.01292 -10.97752,13.97446 -17.1256,20.73051c13.81177,-7.74932 35.98085,-19.19777 51.08556,-29.87556c7.90347,-5.58294 13.88031,-10.8833 15.49869,-15.36163c1.03604,-2.85141 0.39389,-7.47531 -1.43857,-10.82337c-1.03613,-1.88381 -2.44897,-3.3823 -4.24716,-3.78475c-1.15598,-0.25689 -2.45749,-0.02569 -3.87894,0.8049c-0.58224,0.33395 -1.05322,0.68502 -1.42142,1.05322zm-31.17709,-12.83562c-1.49847,-2.42327 -3.39084,-4.64959 -5.70282,-6.08814c1.54132,1.95232 4.11017,4.60678 5.70282,6.08814zm30.11533,14.55674c-0.38535,1.42143 0.24832,2.92848 1.2673,4.28996c1.28439,1.73824 3.22815,3.24529 4.99207,4.11014c0.80493,0.39388 1.57559,0.65077 2.20065,0.70215c0.17984,0.01712 0.3425,0.00856 0.48807,-0.02569c0.06848,-0.01713 0.1456,-0.03426 0.17984,-0.09419c0.09415,-0.14557 0.0856,-0.35963 0.04282,-0.64221c-0.06854,-0.5052 -0.28259,-1.12172 -0.65079,-1.89237c-0.59082,-1.24161 -1.70401,-2.36333 -3.16824,-3.42512c-1.48132,-1.07891 -3.30524,-2.08076 -5.35172,-3.02266zm0,0" fill="#065f46"/>
  </g>
 </g>
</svg>
