<svg viewBox="0 0 375 375" xmlns="http://www.w3.org/2000/svg" preserveAspectRatio="xMidYMid meet">
 <g id="Layer_1">
  <title>Layer 1</title>
  <g stroke="null" id="svg_76">
   <path stroke="null" id="svg_9" fill-rule="evenodd" d="m196.53735,119.29844c2.17046,1.97919 4.93134,3.91682 7.28476,4.68187c2.37003,0.76508 6.24525,1.50517 10.24522,0.86485c-7.86688,3.4927 -14.71088,0.66527 -17.52998,-5.54672" fill="#065f46"/>
   <path stroke="null" id="svg_10" fill-rule="evenodd" d="m196.79515,119.01571c-0.13306,-0.12473 -0.33264,-0.13306 -0.48233,-0.02496c-0.14969,0.10811 -0.19957,0.29939 -0.12474,0.46568c2.90227,6.39496 9.93753,9.32216 18.02893,5.73801c0.17462,-0.08318 0.2661,-0.27444 0.20789,-0.45739c-0.0499,-0.18296 -0.23283,-0.29936 -0.42409,-0.26611c-3.92513,0.6237 -7.73383,-0.09978 -10.06227,-0.84823c-2.31183,-0.75674 -5.01451,-2.66109 -7.14339,-4.60701m1.08937,1.92929c1.87109,1.48855 3.96671,2.79415 5.82115,3.40122c1.82118,0.58212 4.51555,1.15591 7.46771,1.12264c-5.67979,1.50517 -10.56123,-0.43242 -13.28886,-4.52386" fill="#065f46"/>
   <path stroke="null" id="svg_11" fill-rule="evenodd" d="m208.36259,108.78712c-0.64032,-1.11432 -1.72972,-2.86068 -2.41161,-3.42616c-1.54677,-1.29729 -2.63617,-0.12473 -0.80666,1.36381c1.03949,0.84823 2.12888,1.57172 3.21826,2.06235" fill="#065f46"/>
   <path stroke="null" id="svg_12" fill-rule="evenodd" d="m208.20459,109.1364c0.14969,0.06653 0.33264,0.02494 0.44075,-0.09148c0.10811,-0.12475 0.12474,-0.30769 0.0499,-0.44907c-0.66528,-1.14758 -1.79625,-2.93553 -2.49478,-3.52596c-0.55716,-0.46568 -1.07275,-0.64032 -1.44695,-0.64864c-0.34929,0 -0.6154,0.14138 -0.77341,0.34928c-0.15799,0.20789 -0.22452,0.49895 -0.12473,0.85653c0.09979,0.38255 0.41579,0.88149 1.04779,1.39708c1.07275,0.86485 2.17879,1.60498 3.30142,2.11225m-0.86485,-1.31393c-0.66527,-0.39916 -1.31392,-0.87318 -1.95424,-1.38875c-0.39917,-0.32433 -0.64032,-0.6237 -0.75676,-0.8815c-0.0582,-0.14137 -0.09979,-0.24946 -0.04156,-0.32432c0.0499,-0.06653 0.14967,-0.0582 0.26611,-0.03327c0.24115,0.0416 0.53221,0.19128 0.85652,0.45739c0.44907,0.37421 1.07275,1.28897 1.62993,2.17045" fill="#065f46"/>
   <path stroke="null" id="svg_13" fill-rule="evenodd" d="m211.58086,110.3921c0.93138,-0.80666 1.96257,-1.67981 3.45943,-2.13721c1.38043,-0.42409 2.46983,0.69855 1.12265,1.62993c-0.94803,0.65696 -3.22656,0.49895 -4.58208,0.50728" fill="#065f46"/>
   <path stroke="null" id="svg_14" fill-rule="evenodd" d="m211.33139,110.10104c-0.12474,0.1081 -0.16634,0.27443 -0.10811,0.42412c0.0499,0.14967 0.19957,0.24948 0.35757,0.24948c0.82329,-0.00832 1.97919,0.0499 2.98541,-0.0499c0.73181,-0.07485 1.38876,-0.23284 1.81288,-0.52389c0.7318,-0.50728 0.87317,-1.08939 0.7318,-1.53014c-0.09148,-0.28276 -0.30769,-0.53222 -0.61537,-0.69022c-0.39917,-0.2079 -0.95633,-0.27443 -1.56339,-0.09148c-1.56342,0.47401 -2.63617,1.37213 -3.6008,2.21204m1.27234,-0.08316c0.70685,-0.55716 1.50517,-1.08105 2.54466,-1.39707c0.42412,-0.13305 0.81496,-0.09148 1.05612,0.07485c0.12476,0.07483 0.19958,0.18293 0.19127,0.30769c-0.01663,0.19126 -0.17464,0.37422 -0.44907,0.5738c-0.34096,0.23283 -0.86485,0.33264 -1.45528,0.39084c-0.60707,0.05823 -1.27234,0.05823 -1.88771,0.0499" fill="#065f46"/>
   <path stroke="null" id="svg_15" fill-rule="evenodd" d="m192.1216,109.64367c1.5634,0.83158 3.79205,3.90849 5.74631,4.58207c3.20995,1.10601 7.04359,2.82742 8.38245,3.87521c2.76921,0.12476 5.65483,0.21623 8.31592,1.03118c2.90227,0.88981 7.72549,0.09148 9.05605,0.16631c-0.75674,2.10395 -5.23903,2.49479 -9.51341,2.06236c-4.63196,-0.4657 -9.40532,-1.03117 -16.64847,-4.78997c-1.59668,-0.83159 -6.0041,-4.16628 -5.33884,-6.92715" fill="#065f46"/>
   <path stroke="null" id="svg_16" fill-rule="evenodd" d="m192.30453,109.30271c-0.10811,-0.04991 -0.23283,-0.0582 -0.34094,-0.00832c-0.09979,0.04989 -0.18294,0.14137 -0.2079,0.25779c-0.29106,1.20582 0.26611,2.52805 1.19751,3.71721c1.3139,1.68814 3.34299,3.12679 4.33258,3.64239c7.30139,3.79206 12.1163,4.35755 16.78984,4.82323c2.61121,0.26611 5.30557,0.22452 7.2016,-0.316c1.38876,-0.39086 2.36172,-1.05613 2.70268,-1.98752c0.04158,-0.11641 0.02493,-0.24116 -0.04158,-0.34094c-0.06654,-0.0998 -0.17464,-0.16633 -0.29938,-0.16633c-1.31392,-0.08315 -6.08727,0.7235 -8.96457,-0.158c-2.65279,-0.80663 -5.52177,-0.91473 -8.29097,-1.03949c-1.43033,-1.06444 -5.21408,-2.76086 -8.39078,-3.85859c-0.9397,-0.32431 -1.92928,-1.23074 -2.87729,-2.1455c-1.03119,-0.98959 -2.01247,-1.9875 -2.81081,-2.41993m0.13306,0.9896c0.64865,0.48232 1.38046,1.23907 2.14552,1.97917c1.03947,0.99791 2.13719,1.96257 3.16005,2.31184c3.16835,1.09771 6.95212,2.78583 8.27437,3.81701c0.05818,0.0499 0.13306,0.07485 0.21619,0.08315c2.73593,0.11642 5.5883,0.20792 8.21613,1.01454c2.57794,0.79002 6.64442,0.27443 8.50719,0.19128c-0.39915,0.44906 -1.06442,0.77337 -1.88771,0.99791c-1.82118,0.51559 -4.40742,0.54884 -6.91884,0.29105c-4.59871,-0.45739 -9.33046,-1.01456 -16.51541,-4.74839c-0.93138,-0.48232 -2.83574,-1.83782 -4.08313,-3.42618c-0.62369,-0.81495 -1.0977,-1.67148 -1.11435,-2.51139" fill="#065f46"/>
   <path stroke="null" id="svg_17" fill-rule="evenodd" d="m204.84496,80.89552c-5.26398,0.47402 -9.53835,-1.9376 -13.72957,-5.86272c-0.70688,-0.66527 -2.11226,-1.42202 -2.51974,-1.48855c-0.45737,-0.07485 -0.91475,0.13305 -1.15591,0.53222c-0.24117,0.39084 -0.22452,0.89811 0.0499,1.27232c1.23079,1.67151 4.71513,5.87936 7.37622,7.01866c3.02701,1.28896 7.4095,1.89601 10.16206,1.58833c0.86485,-0.09148 1.34718,-0.32431 1.5717,-0.50726c0.34096,-0.26611 0.47401,-0.57381 0.52393,-0.84824c0.04156,-0.25778 0.0083,-0.51557 -0.10809,-0.77338c-0.10812,-0.22453 -0.31602,-0.474 -0.65698,-0.65694c-0.33264,-0.18296 -0.88982,-0.32434 -1.5135,-0.27444" fill="#065f46"/>
   <path stroke="null" id="svg_18" fill-rule="evenodd" d="m230.39148,89.25301c-0.59874,-0.50727 -1.38876,-0.69022 -1.87941,-0.632c-0.54051,0.06653 -0.90642,0.36588 -1.09769,0.70684c-0.158,0.27444 -0.23285,0.61538 -0.11644,1.03949c0.08316,0.29939 0.34097,0.78171 1.03951,1.33055c2.41161,1.87939 5.6465,3.57585 9.17245,3.91679c3.80038,0.36592 8.54878,-1.17254 10.56122,-2.02907c0.42412,-0.17463 0.69855,-0.58212 0.69855,-1.03948c0,-0.4574 -0.26611,-0.87318 -0.6819,-1.05614c-0.1497,-0.06653 -0.46571,-0.14136 -0.8898,-0.18294c-0.6736,-0.05823 -1.69646,-0.03327 -2.32014,0.09978c-5.82115,1.27235 -10.43649,1.23077 -14.48634,-2.15383" fill="#065f46"/>
   <path stroke="null" id="svg_19" fill-rule="evenodd" d="m188.36279,64.20547c-0.58211,0.04157 -1.04779,0.51559 -1.05612,1.10601c-0.01662,0.58212 0.41582,1.08939 0.99791,1.15592c4.40747,0.55716 9.58827,1.79623 11.29303,2.42823c5.422,2.02078 8.83983,4.98125 10.66101,6.29516c0.99792,0.70686 2.13719,0.54054 2.74428,0.06652c0.4657,-0.35757 0.71515,-0.88148 0.64864,-1.51348c-0.0416,-0.40749 -0.23286,-0.92308 -0.79002,-1.43034c-3.06026,-2.81911 -4.82323,-4.74007 -12.36577,-7.14339c-2.43657,-0.77337 -8.40741,-1.23075 -12.13295,-0.96463" fill="#065f46"/>
   <path stroke="null" id="svg_20" fill-rule="evenodd" d="m254.2748,85.36117c0.55719,0.19958 1.16423,-0.05822 1.4137,-0.59044c0.24951,-0.53222 0.05823,-1.16422 -0.44904,-1.46361c-3.22659,-1.90434 -9.6631,-4.56544 -11.30133,-4.90637c-5.97084,-1.22244 -11.48431,-1.01456 -14.17865,-0.31602c-1.36382,0.3576 -1.62993,1.22245 -1.59668,1.73804c0.02495,0.36589 0.18295,0.74011 0.52393,1.0478c0.37421,0.33263 1.08107,0.63202 1.97087,0.5655c2.04572,-0.16634 5.48019,-0.63203 11.92503,0.34093c1.7796,0.2661 7.37622,2.03741 11.69217,3.58417" fill="#065f46"/>
   <g stroke="null" id="svg_21" clip-path="url(#8fec239b7b)">
    <path stroke="null" id="svg_72" fill-rule="evenodd" d="m154.59186,357.50806c4.23279,1.72141 7.59241,1.69644 11.45934,-0.07483c0.0499,-0.00833 0.42409,-0.07486 0.74841,-0.10812c1.27234,-0.12473 3.5509,-0.19955 6.61116,-0.24118c17.73787,-0.22449 61.18025,0.815 86.08643,1.36383c0.02496,0 0.0416,0 0.05823,-0.0083c1.86276,-0.0582 3.10184,-0.31601 3.85028,-0.69855c0.81494,-0.40747 1.21411,-0.97296 1.35547,-1.60498c0.18298,-0.79834 -0.14136,-1.87939 -1.08936,-3.11844c-0.00833,-0.00833 -0.01666,-0.01666 -0.01666,-0.02496l-20.65674,-25.72946c-0.39082,-0.49066 -1.11433,-0.56552 -1.60497,-0.17465c-0.49065,0.39087 -0.56549,1.11435 -0.17464,1.60495l20.64844,25.72119c0.26611,0.34094 0.46567,0.65695 0.59042,0.93967c0.03326,0.08319 0.05823,0.19131 0.06653,0.24948c-0.09149,0.0499 -0.38254,0.20789 -0.64865,0.28275c-0.58209,0.15802 -1.35547,0.24115 -2.36169,0.27444c-24.93115,-0.54056 -68.39017,-1.58002 -86.12804,-1.3555c-3.15172,0.0416 -5.50514,0.12473 -6.81073,0.24948c-0.74844,0.07483 -1.23077,0.19125 -1.44698,0.29105c-3.28477,1.51352 -6.13715,1.49689 -9.74626,0.02496c-0.11642,-0.0499 -0.39917,-0.12476 -0.8316,-0.16632c-1.07274,-0.09149 -3.659,-0.15802 -7.40945,-0.19125c-18.53621,-0.14972 -65.82054,0.41577 -98.21107,0.69022c-0.20789,-0.01663 -0.43242,-0.06653 -0.5821,-0.10812c0.02493,-0.06653 0.04988,-0.14139 0.07483,-0.19958c0.11644,-0.24115 0.28274,-0.50726 0.48232,-0.79831c0.01665,-0.01663 0.02495,-0.03329 0.03328,-0.04993l18.64429,-29.56308c0.33263,-0.53223 0.17463,-1.23911 -0.3576,-1.57172c-0.53221,-0.34097 -1.23906,-0.17465 -1.57169,0.35757c0,0 -18.02061,28.57352 -18.62767,29.53818c-0.53222,0.75674 -0.85653,1.43866 -0.95633,1.98749c-0.11641,0.61539 0,1.14758 0.28276,1.58002c0.35756,0.53223 1.10601,1.01456 2.46151,1.10602c0.02493,0.00833 0.0582,0.00833 0.08315,0.00833c32.38221,-0.28275 79.69147,-0.84824 98.21937,-0.69025c4.0748,0.03329 6.72757,0.09149 7.47603,0.20792m97.18819,-7.78369l2.21204,2.07898c-8.09973,-0.62372 -15.63396,-0.37421 -25.19727,-1.67151c-24.09953,-3.27646 -48.94751,-4.83154 -68.78932,2.11224c-16.30751,-6.24524 -54.97655,-5.31387 -101.95321,0c-0.96466,-0.04156 -1.73804,-0.02493 -2.32846,-0.0166c0.09148,-0.19131 0.2079,-0.40753 0.33264,-0.62375c5.6465,-9.97076 10.503,-16.35739 15.09339,-24.2991c0.31602,-0.54053 0.13306,-1.23907 -0.41579,-1.55508c-0.54054,-0.31601 -1.23907,-0.13306 -1.55508,0.4158c-4.5987,7.95001 -9.4552,14.33664 -15.11002,24.30743c-0.56549,1.00626 -0.87318,1.66318 -0.94803,2.07068c-0.09978,0.49063 -0.0083,0.85654 0.15801,1.13928c0.2079,0.36591 0.59874,0.69855 1.33055,0.79001c0.61537,0.07483 1.73803,-0.02496 3.42616,0.05823c0.05821,0 0.12474,0 0.18294,-0.00833c46.86855,-5.30554 85.39624,-6.35336 101.31289,-0.00833c0.17464,0.06656 0.35759,0.09149 0.53223,0.07486c0.11644,-0.0083 0.23283,-0.02496 0.34927,-0.06653c19.59233,-6.97708 44.20746,-5.3804 68.07413,-2.13718c10.87723,1.48019 19.13493,0.97293 28.57352,1.99582c0.49063,0.0499 0.95633,-0.20789 1.15591,-0.65698c0.20792,-0.44073 0.10809,-0.97293 -0.24948,-1.30557l-2.94383,-2.76923c0.16632,-0.10809 0.30768,-0.26608 0.39919,-0.44907c0.19957,-0.39084 0.14967,-0.87314 -0.12476,-1.21411l-21.72119,-27.29288c-0.14969,-0.19125 -0.34926,-0.32428 -0.58212,-0.39084c-18.75241,-5.18082 -39.99127,-7.01031 -62.53574,-5.58829c-0.632,0.04156 -1.10602,0.58212 -1.07275,1.21411c0.0416,0.62369 0.58212,1.10602 1.21413,1.06445c22.12866,-1.39709 42.985,0.36591 61.42975,5.41367c0,0 19.92491,25.03922 19.92491,25.03922c-13.35536,-0.71515 -32.4903,-3.85025 -37.87903,-3.99164c-16.59857,-0.45737 -32.5984,-0.99789 -43.77501,3.29312c-0.59042,0.22452 -0.88148,0.8898 -0.65695,1.47192c0.22453,0.59042 0.8898,0.8815 1.47191,0.65695c10.95209,-4.19952 26.63591,-3.58417 42.89354,-3.1434c5.38042,0.14966 24.41556,3.25983 37.77094,3.99164m-139.39983,-217.92708c-4.79829,-5.77958 -6.44483,-11.99989 -5.53839,-17.92082c1.34717,-8.78994 8.40739,-16.96448 19.50914,-21.9374c8.58202,-3.84196 17.29711,-10.41985 17.89588,-23.15154c0.76508,-16.48216 6.22031,-30.087 28.98099,-45.15547c6.05399,-4.00827 11.79196,-8.92297 16.40732,-11.99986c13.2722,-8.84814 21.94571,-9.8627 30.04543,-5.92094c0.56548,0.27441 0.79832,0.95631 0.5239,1.52181c-0.27443,0.56547 -0.95633,0.80665 -1.52182,0.52389c-7.50096,-3.65068 -15.48424,-2.42824 -27.78349,5.77126c-4.61534,3.07689 -10.36163,7.99991 -16.41562,12.0082c-21.8875,14.48632 -27.21803,27.50907 -27.95815,43.3592c-0.64032,13.77117 -9.95416,20.96445 -19.24304,25.12241c-10.27847,4.60704 -16.93954,12.0664 -18.18692,20.2077c-0.69853,4.54881 0.32433,9.28887 3.32636,13.82106c0.79832,-11.90008 7.97499,-26.72738 30.06208,-38.81873c2.48643,-1.35548 4.81491,-3.92512 6.85231,-7.35959c3.17668,-5.34715 5.62155,-12.77326 6.76915,-21.22224c0.76506,-5.6465 7.41782,-19.41767 18.05388,-26.66916c3.85858,-2.63615 15.35951,-7.99992 22.24509,-10.64438c3.74217,-1.43865 9.73795,-1.64656 14.22855,-0.79833c2.66109,-18.89378 29.20552,-26.50285 50.28638,-7.7837c15.89172,14.10381 23.38437,25.65462 23.63385,65.05546c2.38669,3.19331 5.06439,5.45525 6.90222,7.16c3.55923,3.30145 7.15167,6.12053 9.92923,9.17249c2.92719,3.22656 4.96457,6.72757 5.22238,11.22649c0.22452,3.78374 -0.81494,8.3076 -3.74216,14.02063c-0.85654,1.67151 -1.74634,3.18502 -2.52802,4.66524c-0.02496,0.18297 -0.04993,0.3659 -0.06656,0.54886c-0.0582,0.40749 -0.31601,0.74013 -0.66528,0.89813c-0.98959,2.05401 -1.68811,4.11637 -1.71307,6.49471c-0.08313,6.22864 3.88354,11.62569 9.29718,15.83353c5.03116,3.90849 8.20786,8.40739 8.64026,13.74623c0.43243,5.26399 -1.82117,11.40942 -7.88348,18.70251c-1.69644,2.03738 -3.09351,4.49059 -3.80038,7.19325c-0.63202,2.40331 -0.84824,6.01242 -0.88147,7.95834c-0.00833,0.63202 -0.5239,1.13097 -1.15591,1.12265c-0.63202,-0.00832 -1.13098,-0.52391 -1.12265,-1.15591c0.03326,-2.07896 0.27441,-5.93755 0.948,-8.50719c0.79834,-3.02699 2.36172,-5.78789 4.25775,-8.06645c5.55505,-6.67769 7.75876,-12.24933 7.36792,-17.06427c-0.39084,-4.73177 -3.30975,-8.65688 -7.76706,-12.12462c-6.01242,-4.67354 -10.27017,-10.74417 -10.18704,-17.67134c0.04163,-3.12679 1.09775,-5.75461 2.50311,-8.49886c1.20581,-9.72965 0.9397,-16.9229 -4.0665,-24.66503c-1.7879,-2.76089 -5.10596,-6.76084 -7.08514,-9.85437c-0.34097,-0.53222 -0.18295,-1.23907 0.34927,-1.58003c0.5239,-0.33264 1.23074,-0.18295 1.57169,0.34928c1.97922,3.09351 5.29727,7.08516 7.08517,9.84605c4.32428,6.69432 5.3804,12.98114 4.93134,20.66506c2.64447,-5.18913 3.6424,-9.28059 3.44281,-12.72336c-0.23285,-3.95007 -2.07068,-6.9937 -4.64029,-9.82941c-2.73593,-3.01037 -6.28683,-5.77959 -9.79614,-9.03111c-3.61746,-3.35963 -10.20364,-8.78994 -12.37411,-18.76905c-1.58002,-7.24316 -8.36581,-15.18487 -14.32834,-22.52783c-10.50302,-12.93957 -17.67133,-16.62352 -22.44467,-18.37819c-11.02692,-4.04154 -20.09956,-2.75257 -26.47789,5.95421c-0.37422,0.50727 -1.0894,0.61537 -1.59665,0.24116c-0.50728,-0.36591 -0.61539,-1.08109 -0.2495,-1.58836c7.02698,-9.58825 16.97279,-11.20155 29.10574,-6.74422c4.97292,1.82119 12.49051,5.60495 23.43427,19.07673c6.19537,7.6257 13.14749,15.94995 14.78571,23.47586c0.55716,2.56129 1.43033,4.79827 2.46985,6.76084c-0.67361,-35.40921 -7.85855,-46.40286 -22.81891,-59.68339c-12.24936,-10.86891 -26.48621,-12.41567 -36.05785,-7.69223c-6.22862,3.06858 -10.42818,8.81487 -10.64438,16.30753c-0.02493,0.632 -0.54886,1.12264 -1.18086,1.10602c-0.62369,-0.01665 -1.12265,-0.54887 -1.10602,-1.17254l0.00832,-0.18296c-4.10806,-0.83991 -9.72961,-0.69855 -13.19737,0.64032c-6.7442,2.58624 -18.00397,7.82528 -21.78772,10.3949c-10.02068,6.8357 -16.34909,19.77526 -17.07259,25.09745c-1.19749,8.78994 -3.76712,16.51544 -7.06853,22.07879c-2.28688,3.84196 -4.93135,6.67769 -7.71718,8.19949c-30.22839,16.54037 -31.42588,38.26987 -27.10991,49.53796c2.65278,6.91054 3.88353,12.70673 3.87521,17.41353c-0.00831,4.93967 -1.37212,8.70679 -3.85028,11.33461c-8.13297,8.64024 -11.47596,14.50296 -11.74207,19.45926c-0.17462,3.185 0.95634,5.94588 2.79415,8.80655c3.86691,6.02905 6.7858,13.58823 3.94175,20.18275c-1.34718,3.11847 -2.94384,6.03735 -5.10598,9.10594c-0.35757,0.50728 -1.07275,0.632 -1.58834,0.27441c-0.51559,-0.36588 -0.632,-1.08107 -0.27443,-1.58833c2.07067,-2.93553 3.59248,-5.72136 4.87315,-8.69846c2.55299,-5.9126 -0.29938,-12.64021 -3.76711,-18.04556c-2.11224,-3.29311 -3.35132,-6.49472 -3.15173,-10.15372c0.28273,-5.30557 3.6673,-11.67557 12.36577,-20.90625c2.12887,-2.26193 3.21825,-5.53009 3.22659,-9.77121c0,-4.05817 -0.98129,-8.96455 -3.03533,-14.72749c-14.30339,-1.87108 -24.64839,7.20158 -31.63377,15.61729c-12.88968,15.5092 -43.85817,62.15321 -66.04506,94.16953c-8.01654,11.55913 -12.49882,23.23466 -13.17242,33.1057c-0.43242,6.40323 0.7318,12.02481 3.63405,16.29086c6.24527,9.19745 15.77532,11.85852 26.46127,14.02899c8.67352,1.75464 25.45505,3.57584 36.53186,3.92508c0.08315,0 0.158,0.00833 0.24117,0.00833c-2.48647,-4.29099 -3.25154,-9.83774 -2.5031,-15.50085c1.26402,-9.53836 6.85232,-19.36783 15.46761,-23.9166c0.55717,-0.29941 1.24738,-0.08319 1.54675,0.474c0.29106,0.55716 0.07486,1.24738 -0.48231,1.53842c-7.98328,4.21619 -13.09757,13.37204 -14.27012,22.20352c-0.77338,5.81284 0.158,11.50092 3.19332,15.53415l0.01662,0.02493c3.67564,0.67361 7.71718,2.1871 12.78158,3.85861c0.32432,0.10809 0.65695,0.20789 0.99792,0.29108c-4.10806,-3.87524 -6.22865,-9.61325 -6.39496,-15.7088c-0.28273,-10.13712 4.83988,-21.23889 14.91046,-26.22009c-5.67978,-2.14551 -12.29094,-4.26608 -16.09132,-5.03946c-2.54468,-0.51559 -5.80452,-1.07275 -7.80866,-1.77963c-5.15585,-1.80453 -8.9895,-2.88562 -11.8086,-3.13507c-1.64656,-0.14136 -2.90225,-0.01666 -3.83364,0.49893c-0.55716,0.29938 -1.24739,0.09979 -1.55507,-0.44904c-0.2994,-0.55719 -0.09981,-1.24741 0.45736,-1.55511c0.84822,-0.45737 1.88771,-0.74011 3.14341,-0.80661c-12.20776,-7.35129 -26.12861,-7.30972 -39.25946,-2.16214c-0.58212,0.23282 -1.24739,-0.05823 -1.47193,-0.64035c-0.23283,-0.59042 0.05823,-1.24738 0.64033,-1.48019c14.9354,-5.86276 30.84375,-5.3638 44.39872,4.38248c0.12474,0.09146 0.22453,0.20789 0.30767,0.33264c2.58627,0.5239 5.79621,1.48019 9.73796,2.86896c0.65697,0.23288 1.4636,0.44077 2.33678,0.64868c0.87316,-1.12268 1.9376,-1.82953 2.9771,-2.46985c0.64863,-0.39087 1.28895,-0.74844 1.80455,-1.23077c0.01662,-0.02496 0.02494,-0.04987 0.04157,-0.06653c0.35759,-0.67358 1.22244,-1.87106 1.59665,-2.58624c4.87315,-9.38867 9.16415,-20.19937 12.04146,-25.41345c1.38877,-2.51973 1.53014,-2.96878 1.26402,-5.96251l-0.0083,-0.00833l-1.6133,-2.0873c-0.0083,-0.0083 -0.01662,-0.01662 -0.02493,-0.03326c-1.22243,-1.70474 -0.42411,-4.14964 1.3139,-5.66315c1.75468,-1.53844 4.2328,-1.9875 5.85441,-0.2079l0.00833,0.00833c1.08107,-0.33264 2.53636,-0.51558 3.5509,-0.24117c0.24948,0.05821 0.45737,0.2079 0.61537,0.4075l12.50715,16.34909c0.38254,0.49895 0.29105,1.21414 -0.20792,1.59665c-0.50726,0.38254 -1.22241,0.29106 -1.60494,-0.2079c0,0 -10.42818,-13.63811 -12.24104,-16.00813c-0.34096,-0.03328 -0.7235,-0.00833 -1.09772,0.0582l14.97699,19.23474c0.17463,0.22452 0.24948,0.49893 0.24117,0.76505c0.10809,0.08316 0.19958,0.19127 0.28272,0.30769l30.23669,37.25536c3.25154,0.11642 5.77127,0.31601 7.73383,0.72348c2.23698,0.46567 3.817,1.20578 4.98955,2.32013c1.18086,1.11435 1.95424,2.61118 2.51141,4.69019c0.70685,2.61118 0.34926,7.92505 -0.10811,11.90009l55.79153,-0.37421c-2.6528,-2.91891 -5.12262,-6.49475 -7.30971,-10.81073c-3.30142,-6.50302 -9.07265,-19.26797 -12.64021,-28.67328c-1.1559,-3.05194 -2.72762,-8.53214 -3.16835,-11.00198c-0.86485,-4.84818 -1.28897,-19.00188 0,-29.42172c-6.96043,9.4053 -10.3866,12.48219 -11.75871,13.73792c-0.22453,0.20789 -0.46568,0.44904 -0.49065,0.48232c-0.19127,0.29938 -0.50726,0.49895 -0.86485,0.53221c-0.37421,0.04158 -0.74013,-0.10811 -0.97295,-0.39084c-13.39697,-15.77531 -17.34703,-20.60687 -21.74615,-31.67535c-0.23285,-0.58211 0.0499,-1.24739 0.64032,-1.48022c0.58211,-0.23285 1.24739,0.04988 1.48024,0.64032c4.22449,10.61943 8.06644,15.36781 20.55696,30.08701c1.60498,-1.48024 5.64651,-5.24733 13.98738,-16.96449c0.22453,-1.03117 0.474,-1.97919 0.75674,-2.81909c-1.27232,-5.15585 -2.869,-10.92712 -4.77333,-17.29712c-0.50728,-1.6133 -0.34927,-2.78583 0.13306,-3.70058c0.47401,-0.8815 1.29727,-1.54678 2.32014,-2.08731c0.45737,-0.24948 0.92307,-0.49893 1.38875,-0.74011c-0.03326,-0.09145 -0.06653,-0.19958 -0.07484,-0.29938c-1.52182,-12.93958 -2.98541,-32.39883 -2.90225,-39.28441c0.09146,-7.59244 2.77751,-12.49884 6.41989,-15.92499c-2.89394,-0.45738 -5.94588,-2.2869 -8.78162,-4.80661c-5.81282,-5.1642 -10.80237,-13.08926 -11.83356,-16.2327c-0.36589,-1.11431 -0.70685,-2.18708 -1.02286,-3.23489c0.04156,2.12888 -0.03326,4.10807 -0.29106,5.93756c-1.24738,8.97289 -3.69228,13.90424 -8.0914,18.50294c-7.9417,8.29097 -5.58829,20.22432 -1.24738,26.25337c5.15587,7.16 7.77538,13.02272 7.2598,18.28673c-0.5239,5.32219 -4.19122,10.16203 -11.97493,15.13496c-3.30142,2.10393 -5.62155,4.47397 -6.82738,7.65897c-1.86276,4.93965 -1.07274,11.71715 2.52805,22.12035c1.69646,4.9064 -0.11641,9.99574 -3.5509,13.55496c-3.42615,3.5509 -8.44064,5.53011 -13.02272,4.35754c-0.61539,-0.14969 -0.98128,-0.77339 -0.82329,-1.38043c0.14969,-0.61539 0.77341,-0.98129 1.38876,-0.82329c3.817,0.97296 7.95834,-0.78171 10.81902,-3.74214c0.2661,-0.27446 0.5239,-0.56551 0.76506,-0.85657c0.28273,-2.86899 -0.7318,-5.60493 -2.17877,-8.03317c-2.34509,-3.94176 -5.83777,-7.06023 -7.3679,-8.59035c-3.72554,-3.75049 -5.47188,-8.26602 -5.13092,-12.97284c0.33263,-4.62366 2.69435,-9.4552 7.29306,-13.89592c6.1122,-5.92093 9.0394,-10.88553 8.92299,-16.29921c-0.11642,-5.48849 -3.29309,-11.35954 -9.05605,-18.97693c-5.99579,-7.94171 -3.73386,-19.89999 5.89601,-28.59015c6.22028,-5.62157 10.54457,-9.58824 14.22852,-15.62562c0.33266,-0.54054 1.03117,-0.70685 1.57172,-0.38254c0.53221,0.33263 0.70686,1.03119 0.37421,1.57171c-3.79205,6.22031 -8.23276,10.3367 -14.6443,16.12459c-8.62364,7.78369 -10.97702,18.41975 -5.60497,25.52158c6.14548,8.13297 9.38869,14.45306 9.51341,20.30746c0.12474,5.94591 -2.90225,11.49261 -9.62151,17.98737c-4.11639,3.98331 -6.30348,8.27432 -6.59451,12.42397c-0.29941,4.0665 1.24738,7.95834 4.47394,11.19325c1.59665,1.60495 5.23904,4.90639 7.70058,9.0394c1.05611,1.76297 1.8877,3.67563 2.28685,5.67976c0.83159,-2.15381 1.00624,-4.52385 0.2079,-6.84399c-3.85028,-11.12671 -4.49892,-18.38651 -2.5031,-23.67545c1.36382,-3.62572 3.96669,-6.37 7.72552,-8.7733c6.98537,-4.46564 10.46973,-8.65688 10.93541,-13.43852c0.474,-4.83986 -2.10393,-10.15372 -6.84401,-16.73164c-4.82321,-6.69431 -7.3679,-19.94989 1.45529,-29.16394c4.09143,-4.27438 6.31178,-8.88971 7.48434,-17.23889c0.74841,-5.35546 -0.14139,-12.04978 -0.84824,-20.14117c-0.42412,-2.66942 -0.7401,-5.32219 -1.00621,-8.12466c-2.54468,6.02905 -9.08932,12.10798 -14.81898,15.78364c-0.05821,0.04988 -0.12474,0.09978 -0.1996,0.14969c-18.73576,11.30133 -22.61099,18.40313 -23.65878,29.68784c-0.05823,0.63202 -0.61539,1.08937 -1.24741,1.03119c-0.62369,-0.05823 -1.08937,-0.6154 -1.03116,-1.23909c0.83992,-8.98952 3.27646,-15.54247 12.93124,-23.3428c-11.75038,5.83779 -19.12661,13.29715 -15.98318,26.96022c0.78169,3.41785 3.72552,9.86272 4.98123,14.76907c0.14969,0.60707 -0.2162,1.23077 -0.82326,1.38878c-0.60707,0.14967 -1.23079,-0.21622 -1.38878,-0.82329c-1.26402,-4.92302 -4.20786,-11.39279 -4.99786,-14.81897c-4.09976,-17.85429 8.06643,-26.19517 25.50492,-33.18885c1.10603,-0.44073 2.36172,-1.07275 3.67564,-1.85446l0.71516,-0.44073c5.77956,-3.59248 12.57367,-9.85436 14.6111,-15.9333c1.86276,-5.54671 2.81076,-11.1766 4.33257,-17.06428c0,-0.09148 0.00833,-0.19126 0.02495,-0.28274c3.55923,-16.75658 10.29512,-26.428 22.41974,-29.62964c4.86481,-1.28065 7.03526,-0.8898 10.49469,-2.05402c0.8815,-1.54678 1.5634,-3.57585 1.72141,-5.86274c0.04156,-0.632 0.58211,-1.10601 1.21413,-1.05611c0.62369,0.04157 1.10603,0.5821 1.05611,1.21412c-0.22452,3.33469 -1.42203,6.18705 -2.81909,8.08307c-1.04781,1.41372 -2.23698,2.31183 -3.23489,2.60289c-18.9603,5.62987 -24.64839,14.84393 -27.10991,22.24509c-2.09561,6.2702 -3.06857,12.21609 -4.59871,18.0206c0.03326,0.0998 0.05823,0.19958 0.06653,0.30769c0.34927,4.61534 0.7318,8.68183 1.3638,12.75663c0.03328,0.08315 0.04991,0.16634 0.04991,0.24948l0.01663,0.16631c0.84822,5.31389 2.12888,10.67764 4.31598,17.33871c0.97295,2.96047 5.71303,10.37827 11.18489,15.24308c1.77962,1.58003 3.63406,2.88562 5.46358,3.65071c1.66318,0.69853 3.30141,0.948 4.81491,0.44072c0.02496,-0.0083 0.0499,-0.01663 0.06653,-0.02495c1.89603,-1.27232 3.89185,-2.2952 5.84608,-3.185c6.71095,-3.06026 13.08928,-4.99786 19.66716,-6.82738c0.43243,-3.40119 1.38878,-6.36167 2.32016,-9.4136c0.77338,-2.51974 2.00414,-4.04155 3.40953,-4.93966c1.44698,-0.93139 3.11015,-1.19749 4.74838,-1.13097c0.72348,-0.53222 3.11847,-1.60498 5.2307,-1.99582c2.35342,-1.76299 4.30768,-1.87942 8.923,-18.96863c1.78792,-6.63611 1.08937,-15.94994 0.04161,-20.36571c-3.02704,-12.73168 -11.42612,-22.99352 -26.24509,-28.96436c-4.09143,-0.35757 -8.39908,0.12475 -12.78989,1.65488c-0.59044,0.20789 -1.24739,-0.1081 -1.45529,-0.69854c-0.2079,-0.59875 0.10812,-1.24737 0.70686,-1.45528c22.96858,-8.02486 43.71678,10.80238 46.59413,30.15353c0.24112,1.61328 0.33261,10.0872 1.50516,17.92914c0.74011,4.98956 1.87939,9.7213 3.88351,12.04975c1.92099,2.22869 5.66318,6.01243 8.32425,7.85856c4.19125,2.91888 6.03738,7.28474 6.25357,12.21609c0.31601,7.05191 -2.7775,15.29298 -6.81903,21.72951c-1.10602,1.76299 -1.97919,3.27647 -2.47815,4.63197c-0.62369,1.68814 -0.62369,3.06857 0.44073,4.37418c0.02493,0.03328 0.0499,0.06653 0.07483,0.10811c9.09763,2.22867 15.50092,6.22031 19.8418,11.57576c6.86066,8.47392 8.56543,20.43222 7.36792,34.50276c-3.08521,36.26575 -8.73172,63.46713 -18.04556,90.01157c-1.44696,4.11639 -7.6756,12.39072 -13.71292,18.66922l27.73358,0.05823c-0.26611,-1.62161 -0.4657,-3.23489 -0.59875,-4.80661c0,-0.02493 0,-0.0416 0,-0.06653c-0.29105,-0.4075 -0.40747,-0.82327 -0.40747,-1.22244c0,-0.61536 0.28275,-1.27234 0.99789,-1.85446c0.65698,-0.5322 1.75467,-1.05612 3.26816,-1.53012c5.23904,-1.61328 15.78363,-2.74426 27.9332,-2.74426c12.14957,0 22.70245,1.13098 27.93317,2.74426c1.51349,0.474 2.61951,0.99792 3.27649,1.53012c0.70685,0.58212 0.99792,1.23911 0.99792,1.85446c0,0.35757 -0.09979,0.72348 -0.31601,1.08105c0.01663,0.06656 0.02493,0.13309 0.02493,0.20792l0,0.09149c4.81491,-1.94592 9.07266,-1.52182 11.80029,0.31601c1.60498,1.08105 2.73593,2.66107 3.185,4.59866l19.64221,0.07486c0.63202,0 1.13928,0.51559 1.13928,1.13928c-0.00833,0.63202 -0.51559,1.13931 -1.14758,1.13931l-19.43433,-0.07486c-0.0499,1.28064 -0.35757,2.6694 -0.98126,4.13303c-0.49896,1.19748 -1.7131,2.87729 -3.50934,4.72342c-3.12677,3.20996 -8.06644,6.98538 -13.93747,9.62152c3.30972,0.40747 6.51135,1.07275 8.45728,1.50519c4.31595,0.95633 7.09351,2.16217 8.5571,3.41785c1.3056,1.11435 1.72971,2.32016 1.52182,3.50931c-0.00833,0.0499 -0.01666,0.09149 -0.02496,0.14136c0.03326,0.21622 0.0083,0.44077 -0.08316,0.65698c-1.24738,2.74426 -3.44281,5.04776 -6.38663,6.93549c-4.23279,2.711 -10.03732,4.58206 -16.67343,5.72964c-16.31583,2.81912 -37.70438,1.3389 -52.57327,-1.97086c-7.60074,-1.69644 -13.51337,-3.90848 -16.29086,-6.22031c-1.51349,-1.25571 -2.1871,-2.61118 -2.07901,-3.90848c0.01666,-0.14969 0.05823,-0.29105 0.11642,-0.4158l-0.0083,-0.03326c-0.21622,-1.08939 0.17465,-2.30353 1.51349,-3.50934c1.48856,-1.33051 4.32428,-2.78583 8.70679,-4.26605c2.63614,-0.8898 7.72546,-2.09561 12.46555,-2.87732c-3.16833,-5.11429 -5.40533,-11.26807 -6.66104,-17.36362l-30.43628,-0.06656c-0.474,0.45737 -0.948,0.89813 -1.4137,1.31393c-7.02693,6.36166 -19.0601,9.8876 -30.61925,5.64651c-3.83363,-1.39709 -7.61737,-3.65903 -11.15164,-6.96045l-57.18028,0.39087l7.59244,10.8689c0.01663,0.02496 0.03326,0.0499 0.0499,0.08319c0.74843,1.28894 1.10602,2.61118 1.02286,3.37622c-0.08316,0.77341 -0.49893,1.24741 -1.06444,1.46362c-0.30769,0.11639 -0.71518,0.15802 -1.23074,0c-0.58212,-0.17462 -1.46359,-0.69855 -2.66109,-1.81287c-0.02496,-0.02493 -0.05824,-0.05823 -0.08319,-0.09146l-10.98534,-12.69012c0.38255,1.3555 0.20792,2.68607 -0.44072,3.80038c-1.03949,1.79626 -3.45113,3.20996 -7.2016,3.29309c-0.09148,1.48026 -0.49895,2.6694 -1.21413,3.56754c-0.80666,1.02286 -2.01245,1.72141 -3.73384,2.02078c-0.40749,0.06653 -0.84824,0.11642 -1.32224,0.14136c-0.60707,1.38046 -1.76295,2.45322 -3.28479,3.25156c-2.1954,1.13925 -5.18913,1.71304 -8.11635,1.98749c-0.76506,0.06653 -8.78162,0.22455 -16.43226,-0.26611c-4.29933,-0.27441 -9.5051,-2.61121 -14.01234,-5.43863c-1.09769,1.59668 -2.86067,2.68607 -4.95628,3.26816c-3.00206,0.8316 -6.70264,0.62369 -9.82942,-0.40747c-6.31181,-2.08731 -10.95207,-3.97501 -15.3512,-4.11636c-11.19322,-0.3576 -28.14108,-2.18707 -36.90607,-3.96671c-8.12465,-1.64655 -15.57571,-3.64236 -21.5715,-8.24939l-27.09327,0.0582c-0.63202,0 -1.14759,-0.50726 -1.14759,-1.13925c0,-0.63202 0.50727,-1.13931 1.13927,-1.13931l24.48208,-0.05823c-1.33055,-1.30557 -2.56962,-2.7775 -3.70891,-4.45731c-3.16004,-4.64862 -4.49059,-10.7525 -4.01657,-17.72955c0.69853,-10.20364 5.28059,-22.29498 13.56326,-34.2533c22.22847,-32.06619 53.25516,-78.78503 66.1698,-94.31918c7.22654,-8.70679 17.91249,-17.91251 32.50694,-16.55701c-0.94801,-2.63614 -1.62161,-5.77957 -1.77129,-9.26393m45.91221,215.78157c-4.9147,-4.04987 -10.29512,-7.68393 -26.45293,-6.92719c-16.34082,0.76508 -48.34879,2.53635 -71.47536,5.64651c-0.6237,0.08319 -1.06445,0.65698 -0.98129,1.28067c0.08316,0.62369 0.65695,1.06445 1.28065,0.98126c23.06837,-3.10184 54.98489,-4.87311 71.2841,-5.62988c17.86259,-0.83157 21.81265,3.97504 27.40096,8.48224c0.0416,0.02496 0.07484,0.0499 0.11642,0.07486c0.40749,0.31601 0.99791,0.31601 1.41371,-0.02496c16.57364,-13.61313 39.02663,-13.49673 81.45445,-5.95419c0.61539,0.10809 1.21413,-0.30768 1.32224,-0.92307c0.10811,-0.62369 -0.30768,-1.21411 -0.92307,-1.32224c-42.40288,-7.54254 -65.27168,-7.49265 -82.11142,5.49683c-0.34094,-9.97076 -1.04781,-20.53201 -2.17044,-31.74188c-0.06653,-0.62369 -0.6237,-1.08105 -1.24739,-1.02283c-0.63202,0.0665 -1.0894,0.62369 -1.02287,1.25568c1.07278,10.68597 1.76299,20.78149 2.11224,30.32819m127.3251,-4.67355c2.97711,1.37213 7.09348,2.63614 11.90839,3.70889c14.61938,3.25153 35.65039,4.72342 51.68347,1.94592c5.26398,-0.90643 9.98743,-2.27026 13.73792,-4.19952c0.4657,-0.23288 0.91473,-0.48233 1.3555,-0.74011c-0.66531,0.23285 -1.3555,0.45734 -2.08731,0.68188c-9.62152,2.91891 -47.85815,4.4906 -72.31525,-0.36591c-1.59668,-0.31598 -3.02701,-0.66525 -4.28271,-1.03116m17.22226,-13.20569c-4.87311,0.74841 -10.37827,2.02078 -13.12253,2.95215c-3.97498,1.33887 -6.56125,2.59457 -7.90845,3.80869c-0.55716,0.49066 -0.8981,0.89813 -0.80661,1.34717c0.10809,0.5239 0.65692,0.93973 1.44696,1.39709c1.66318,0.96466 4.34924,1.78793 7.89178,2.49475c24.08295,4.78171 61.73743,3.29312 71.21759,0.41583c3.36795,-1.01456 5.92923,-2.15384 7.50928,-3.34302c0.80664,-0.61536 1.3472,-1.18915 1.45529,-1.80457c0.11639,-0.69022 -0.44077,-1.25571 -1.42203,-1.87939c-1.42203,-0.90643 -3.70059,-1.72971 -6.91052,-2.43655c-2.75259,-0.61539 -8.10803,-1.72971 -12.57367,-1.78793c-0.13309,0 -0.25781,-0.02493 -0.37424,-0.0665l-0.06653,0.0166c-0.09979,0.03329 -0.19125,0.04156 -0.28275,0.0499c-1.16422,1.52182 -2.43655,2.90225 -3.81699,4.10806c-11.18494,9.67975 -29.00595,7.5592 -37.77927,-0.24945c-1.62991,-1.44699 -3.11017,-3.14343 -4.45734,-5.02283m-75.14267,8.9313l4.0249,0.69022c0.61539,0.10812 1.20581,-0.30771 1.31392,-0.9314c0.10811,-0.61536 -0.30768,-1.20581 -0.93138,-1.3139l-4.01659,-0.69025c-0.6237,-0.10809 -1.21413,0.30774 -1.32224,0.93143c-0.10809,0.61536 0.30769,1.20581 0.93138,1.3139m127.51636,-34.02045c-0.49893,0.21622 -1.07275,0.43243 -1.72141,0.63202c-5.23071,1.61328 -15.7836,2.74426 -27.93317,2.74426c-12.14957,0 -22.69415,-1.13098 -27.9332,-2.74426c-0.51556,-0.16632 -0.98959,-0.33264 -1.40536,-0.50729c1.18085,10.34503 5.41367,21.89584 12.5903,28.28247c8.07474,7.18497 24.48209,9.13919 34.76886,0.22452c7.69223,-6.66104 11.56747,-19.35114 11.63397,-28.63171m-178.69254,34.23666c2.13719,-0.69855 0.91473,-0.37421 3.26816,-1.00623c0.60706,-0.15799 0.96463,-0.79001 0.80664,-1.39709c-0.16634,-0.60706 -0.79001,-0.96463 -1.39708,-0.80661c-2.43657,0.65692 -1.17255,0.31598 -3.3929,1.03946c-0.59042,0.19125 -0.92305,0.8399 -0.72346,1.43869c0.19124,0.59872 0.83989,0.92303 1.43864,0.73178m43.70848,-1.58835l3.28481,0.48233c0.62367,0.08316 1.19751,-0.34097 1.28896,-0.96466c0.09148,-0.62369 -0.34096,-1.20581 -0.96465,-1.29727l-3.28481,-0.48233c-0.62369,-0.09149 -1.19748,0.34094 -1.28896,0.96463c-0.09148,0.62372 0.34094,1.20584 0.96465,1.2973m-7.99991,-1.04779l2.89394,0.26611c0.62369,0.0582 1.18086,-0.4075 1.23907,-1.03119c0.0582,-0.63202 -0.40749,-1.18918 -1.03116,-1.23907l-2.89395,-0.26611c-0.62372,-0.0582 -1.18086,0.40747 -1.23907,1.03116c-0.0582,0.62369 0.40749,1.18088 1.03117,1.23911m-26.5278,0.04156l4.25775,-0.44907c0.632,-0.06653 1.08107,-0.63202 1.01454,-1.25571c-0.06653,-0.62369 -0.62369,-1.08105 -1.25568,-1.01453l-4.26608,0.45737c-0.62372,0.06653 -1.07277,0.62369 -1.00624,1.25571c0.06653,0.62369 0.62369,1.07275 1.25571,1.00623m18.94368,-0.78168l2.86899,0.19955c0.62369,0.0499 1.17255,-0.4241 1.21413,-1.05612c0.0499,-0.63202 -0.42412,-1.17255 -1.05612,-1.22244l-2.86069,-0.19958c-0.632,-0.04156 -1.18086,0.43243 -1.22243,1.05612c-0.0416,0.63202 0.43243,1.17258 1.05612,1.22247m-9.33047,-0.14142l3.43448,0.00833c0.63202,0 1.13928,-0.50726 1.13928,-1.13928c0.00833,-0.62369 -0.50726,-1.13925 -1.13097,-1.13925l-3.44279,-0.00833c-0.632,0 -1.13927,0.50726 -1.13927,1.13928c0,0.63199 0.50726,1.13925 1.13927,1.13925m-23.54237,-0.29105l2.33676,-0.98126c0.58212,-0.24948 0.85655,-0.91476 0.60707,-1.49686c-0.24115,-0.58212 -0.90643,-0.85657 -1.48854,-0.60706l-2.34509,0.98959c-0.58212,0.24115 -0.85652,0.91473 -0.60707,1.48853c0.24117,0.58212 0.91475,0.85654 1.49687,0.60706m46.51927,-2.71927l2.12886,0.37418c0.62372,0.09982 1.21413,-0.31601 1.32224,-0.93137c0.10812,-0.62369 -0.30768,-1.21414 -0.93137,-1.32224l-2.12889,-0.36591c-0.62367,-0.10812 -1.21411,0.30768 -1.32222,0.9314c-0.09978,0.61539 0.31601,1.20581 0.93138,1.31393m-39.30937,0.0665l3.96671,-0.75674c0.61537,-0.11642 1.02286,-0.70685 0.90642,-1.33054c-0.11641,-0.61539 -0.71516,-1.02289 -1.33054,-0.90646l-3.96671,0.74844c-0.62369,0.11642 -1.03116,0.71515 -0.91475,1.33057c0.11642,0.62369 0.71518,1.03116 1.33887,0.91473m30.77722,-1.24738l3.30977,0.24115c0.62367,0.0416 1.17252,-0.4324 1.21411,-1.05609c0.04991,-0.63202 -0.42412,-1.17258 -1.05612,-1.22247l-3.30975,-0.24118c-0.62369,-0.04156 -1.17252,0.43246 -1.21411,1.05615c-0.04991,0.63199 0.4241,1.18085 1.05611,1.22244m-21.34697,0.17462l3.93344,-0.18295c0.62369,-0.03326 1.11432,-0.56546 1.08107,-1.19748c-0.03326,-0.62369 -0.56549,-1.11435 -1.19749,-1.08109l-3.93343,0.18295c-0.6237,0.03326 -1.11433,0.56549 -1.08107,1.19748c0.02495,0.62369 0.56548,1.11435 1.19748,1.08109m11.54251,-0.44073l4.13303,0.19955c0.632,0.03329 1.16422,-0.44904 1.19749,-1.08105c0.02492,-0.62369 -0.45738,-1.16422 -1.0894,-1.19748l-4.12471,-0.19958c-0.632,-0.02493 -1.17252,0.4574 -1.19748,1.08939c-0.03326,0.62369 0.45737,1.16425 1.08107,1.18918m151.00052,-3.0686c5.54672,-2.07895 10.39493,-5.34711 13.80444,-8.39905c2.50311,-2.237 4.23282,-4.33261 4.82321,-5.72134c1.53012,-3.63406 0.74844,-6.66107 -1.58832,-8.23279c-2.40332,-1.61328 -6.22864,-1.70477 -10.52795,0.28271c-0.02496,0.66531 -0.06653,1.3389 -0.12476,2.02911c2.08728,-0.89813 4.25775,-1.16422 5.98746,-0.82327c1.61331,0.30771 2.86069,1.12265 3.51764,2.32843c0.67361,1.23911 0.75674,2.97714 -0.32431,5.18918c-0.34927,0.72348 -1.18918,1.7879 -2.38666,2.96045c-2.61121,2.56131 -6.99368,5.76294 -11.2764,7.24316c-0.07486,0.02496 -0.14969,0.04156 -0.22455,0.0499c-0.51556,1.06445 -1.07272,2.10394 -1.67981,3.09351m-196.23915,-19.17648c2.36172,-0.70685 4.19124,-2.76089 3.28479,-5.0145c-0.95631,-2.40332 -2.4615,-4.08313 -4.36586,-6.37c-0.632,-0.75677 -6.25356,-4.64862 -8.24107,-5.55505c-2.96878,-1.3555 -8.56538,-3.88354 -14.17863,-7.2598c-2.32848,-1.4054 -5.82946,-2.14551 -10.58617,-1.08939c-1.7131,0.38254 -3.99998,2.39496 -5.23905,3.69226c-1.33054,1.38043 -8.08305,4.66522 -12.98113,7.06024c-0.05823,0.03323 -0.11644,0.05817 -0.17464,0.07483c-3.44279,4.09973 -6.14546,9.53003 -7.29308,14.61942c-0.61537,2.71097 -0.79833,5.33047 -0.37422,7.56747c4.34093,4.39078 13.61317,10.50299 20.46549,10.93542c7.48433,0.48233 15.32625,0.34097 16.07471,0.27441c2.61118,-0.24945 5.30553,-0.71515 7.2681,-1.73801c0.69023,-0.36591 1.28897,-0.79001 1.72971,-1.32224c-1.60497,-0.15802 -3.48438,-0.49893 -5.65483,-1.03949c-3.06857,-0.76508 -10.26183,-5.93756 -15.13499,-8.32425c-0.56546,-0.28275 -0.79833,-0.96466 -0.51556,-1.53012c0.27441,-0.56549 0.95631,-0.79834 1.5218,-0.5239c2.90226,1.43033 6.63611,3.85858 9.81281,5.74631c1.97919,1.17252 3.72552,2.13718 4.86481,2.41992c2.80247,0.69855 5.06441,1.05612 6.85233,1.07272c1.79622,0.02496 3.06856,-0.26611 3.8669,-1.0145c0.64864,-0.60709 0.93138,-1.48856 0.99791,-2.61954c-1.04781,-0.24948 -2.51141,-0.80664 -4.2245,-1.60498c-4.97292,-2.31183 -12.30756,-6.61118 -17.94575,-10.2868c-0.5239,-0.34924 -0.67358,-1.05612 -0.32433,-1.58002c0.34095,-0.5239 1.04782,-0.67358 1.58002,-0.33261c5.53841,3.62573 12.75665,7.85852 17.64639,10.12875c1.93761,0.89813 3.45943,1.50522 4.31596,1.55511c3.35963,0.19125 5.5883,-0.64865 6.44484,-2.13721c0.78172,-1.34717 0.19127,-3.06857 -1.54675,-4.60703c-1.77962,-1.58835 -8.74005,-6.43652 -16.51544,-10.49469c-1.38042,-0.72348 -4.65691,-2.87729 -6.62778,-4.88977c-0.43242,-0.44907 -0.42412,-1.17255 0.02495,-1.61328c0.44905,-0.44073 1.17255,-0.43243 1.61328,0.01663c1.79625,1.84613 4.78166,3.80038 6.04567,4.46564c7.99992,4.17459 15.14331,9.17245 16.98112,10.8107c0.18295,0.16632 0.36589,0.33264 0.53221,0.50729m-54.61065,-24.55692c-11.09344,3.75879 -16.7067,15.06012 -16.42396,25.26376c0.19128,6.72757 2.94383,13.0061 8.5072,16.23267c0.03325,0.01666 0.0582,0.0416 0.09145,0.05823c1.05614,-0.02496 2.079,-0.16632 3.02701,-0.43243c0.88982,-0.24115 1.70477,-0.59875 2.39498,-1.08109c-5.33881,-2.47812 -6.56958,-8.83151 -4.98956,-15.8335c1.48024,-6.52802 5.36378,-13.57159 10.11217,-18.0788c2.2453,-2.13721 4.69849,-3.69229 7.18495,-4.4158c-1.50517,-0.45737 -3.06025,-0.79001 -4.67354,-0.9397c-1.68813,-0.14966 -3.5509,-0.59042 -5.23071,-0.77335m68.54815,37.17215c-0.21622,0.07486 -0.39917,0.18295 -0.53223,0.32434l1.18086,1.35547c0.24948,0.23288 0.50728,0.44077 0.74844,0.61539c-0.09981,-0.28271 -0.22453,-0.57379 -0.37422,-0.8316l-1.02286,-1.46359m185.3037,0.51559c2.76923,-1.27234 5.44696,-3.17667 7.45108,-4.923c1.53845,-1.35553 2.67773,-2.59457 3.06854,-3.37628c0.64868,-1.33057 0.76511,-2.36172 0.36591,-3.11014c-0.38251,-0.69855 -1.19748,-1.06445 -2.16211,-1.21414c-1.60498,-0.23285 -3.61743,0.18292 -5.44693,1.22244c-0.06653,0.04156 -0.14136,0.07483 -0.21622,0.09979c-0.54883,3.70059 -1.57172,7.60074 -3.06027,11.30133m-194.53438,-13.72958c-0.43242,0.59875 -0.98959,1.14758 -1.62991,1.60495l8.81487,10.18704c0.2079,-0.19128 0.44077,-0.3576 0.70686,-0.49899l-7.89182,-11.293m40.07445,-86.90971c-2.91058,9.06436 -2.50311,29.89574 -1.43034,35.91649c0.4241,2.37833 1.93761,7.65063 3.06024,10.59448c3.53427,9.33044 9.25563,21.9873 12.5321,28.44876c5.28893,10.41986 12.25768,16.29086 19.45094,18.92703c10.67764,3.90848 21.80438,0.68188 28.2991,-5.19745c6.66104,-6.02075 15.11002,-16.55698 16.78152,-21.33035c9.25562,-26.37811 14.86057,-53.41316 17.92081,-89.44604c1.13928,-13.38864 -0.33264,-24.8064 -6.86063,-32.87286c-4.32431,-5.33881 -10.86063,-9.17244 -20.2576,-11.17659c-0.44073,-0.09148 -1.18088,-0.04988 -2.09561,0.04158c-2.46985,0.25778 -6.02905,0.96466 -8.85645,1.48856c-0.18298,0.03325 -0.38254,0.158 -0.63202,0.31601c-0.54886,0.36591 -1.19748,0.93137 -1.90434,1.62993c-2.95216,2.90225 -6.84399,7.99991 -9.18079,11.40112c-2.40331,3.50101 -9.73795,13.77946 -15.09338,20.69833c1.07274,3.46773 2.71098,9.75456 3.84193,14.07054c0.14139,0.50726 0.158,0.96465 0.07484,1.37212c3.09354,1.82121 5.75462,3.69228 7.90013,5.91261c2.31183,-4.76503 6.63611,-10.36163 12.74829,-16.42395c0.4491,-0.44072 1.17255,-0.43242 1.61331,0.00833c0.44073,0.44905 0.44073,1.17253 -0.00833,1.61331c-6.28683,6.22859 -10.63605,11.925 -12.71503,16.69836c2.00414,2.66109 3.30141,6.17871 3.99995,11.99986l0.02495,0.0499c2.64447,4.5488 7.634,10.35333 9.22235,17.1308c0.05823,0.23283 0.10812,0.48233 0.14969,0.74011c0.04156,0.03326 0.07486,0.06654 0.11642,0.10811c3.87521,4.42407 6.52802,7.4178 10.7608,19.10999c1.57172,4.33261 2.92722,14.22855 2.17877,24.64008c-0.0499,0.63202 -0.59875,1.10602 -1.22244,1.05612c-0.63202,-0.04156 -1.09769,-0.59042 -1.05612,-1.22244c0.72351,-10.01236 -0.53223,-19.52576 -2.03738,-23.69205c-3.33472,-9.18079 -5.62988,-12.79819 -8.39908,-16.12456c0.09146,3.49266 -0.22455,7.60072 -0.63202,10.93541c-0.07486,0.62372 -0.64032,1.07275 -1.27234,0.99792c-0.62369,-0.07486 -1.06444,-0.64865 -0.98961,-1.27234c0.57381,-4.74007 1.03117,-11.14334 0.18298,-14.75246c-1.1393,-4.85649 -4.10809,-9.16414 -6.61119,-12.8564c0.02496,0.44073 0.0416,0.8898 0.06654,1.34717c0.02496,0.63202 -0.4657,1.16425 -1.0894,1.18918c-0.632,0.03326 -1.16423,-0.45737 -1.18918,-1.08937c-0.41579,-9.29721 -1.64655,-13.94582 -4.24112,-17.19734c-2.22865,-2.79416 -5.24734,-4.94797 -8.88969,-7.06854c-0.6237,0.40749 -1.44699,0.7235 -2.30354,0.97296c-6.22861,1.8212 -24.46542,7.69223 -28.45708,10.3367c-1.6133,1.06444 -2.61951,1.55508 -3.50099,1.97087m-50.77704,69.84544c2.67775,1.68814 6.15378,4.20786 6.6694,4.82321c2.07896,2.49478 3.68393,4.35757 4.73174,6.97708c0.37422,0.9397 0.474,1.87939 0.34094,2.7692l0.59875,0.85654c0.34927,-3.40952 0.55716,-7.32632 0,-9.4053c-0.43243,-1.58835 -0.98129,-2.7692 -1.87939,-3.62576c-0.90645,-0.85651 -2.15384,-1.3804 -3.89186,-1.73798c-1.71309,-0.35764 -3.85858,-0.54056 -6.56958,-0.65698m201.95221,12.66513c-2.46985,-0.68192 -5.63821,-1.17252 -9.19745,-1.52182c-12.41565,-1.22241 -29.42172,-0.62369 -38.11185,0.79834c-1.24738,0.20789 -2.32016,0.4241 -3.1684,0.66528c5.52179,1.28897 14.82733,2.12888 25.36359,2.12888c10.37827,0 19.55905,-0.80667 25.11411,-2.07068m4.72342,-1.76297c-0.07486,-0.07486 -0.19125,-0.17462 -0.29108,-0.24115c-0.5239,-0.34094 -1.29727,-0.65695 -2.28687,-0.96466c-5.10596,-1.58002 -15.40109,-2.63614 -27.25958,-2.63614c-11.85019,0 -22.14529,1.05612 -27.25961,2.63614c-0.98126,0.30771 -1.75464,0.62372 -2.27853,0.96466c-0.09982,0.06653 -0.21622,0.16629 -0.29108,0.24115c0.07486,0.07486 0.19125,0.16632 0.29108,0.23288c0.25778,0.16629 0.56549,0.32428 0.9397,0.4823c0.22452,-0.20792 0.53223,-0.42413 0.92307,-0.60706c1.00623,-0.48233 2.7775,-0.93137 5.10596,-1.31393c8.83151,-1.44696 26.10367,-2.07065 38.71063,-0.82327c5.35544,0.52393 9.88763,1.4054 12.6402,2.66943c0.29105,-0.13309 0.54886,-0.26611 0.76505,-0.40747c0.09982,-0.06656 0.21622,-0.15802 0.29108,-0.23288m-239.16595,-48.75624c-0.13305,0.05821 -0.29937,0.13306 -0.43242,0.21623c-0.63201,0.37419 -1.33054,0.948 -1.89603,1.52179c-0.24117,0.24947 -0.49895,0.59874 -0.66528,0.83159l24.88956,29.83751c0.0499,0.05823 0.09148,0.12476 0.13306,0.19128l0.01663,0.03326c2.14552,1.11435 4.13301,2.05405 5.77124,2.81912l0.96468,0.0166l-28.78144,-35.46739m-18.52787,-12.7982c1.8212,15.04349 3.95007,31.15976 4.43239,41.76257c1.14759,0.18292 2.32014,0.39914 3.41785,0.49893c2.99373,0.28275 5.82946,1.13098 8.48223,2.237c0.08318,0.03323 0.158,0.07483 0.22453,0.11642c1.57172,-1.50519 4.03323,-3.40955 5.87936,-3.81702c5.51348,-1.22244 9.55499,-0.26611 12.25768,1.3638l0.44077,0.26611l-21.51331,-25.79599l-0.05823,-0.04156c-0.07482,0.0083 -0.14968,0.0083 -0.23283,0c-0.31601,-0.02496 -0.60707,-0.18295 -0.79833,-0.44077l-12.5321,-16.14951m-1.81286,4.0249c-2.86068,5.24734 -7.11843,15.94162 -11.94167,25.22217c-0.27442,0.53223 -0.79832,1.30563 -1.21413,1.95425c-0.00832,0.21622 -0.09148,0.4241 -0.23286,0.61539c-0.59875,0.76505 -1.38875,1.33054 -2.25361,1.86276c-0.69022,0.43243 -1.43865,0.8399 -2.12055,1.42203c0.88148,0.16632 1.75466,0.33264 2.55299,0.49896c4.26606,0.85654 12.04146,3.40118 18.17028,5.7962c0.31601,0.0083 0.64864,0.02493 0.98961,0.0499c-0.47401,-9.67145 -2.27026,-23.75861 -3.95007,-37.42166m170.69265,12.1246c5.18912,4.64029 9.5134,10.56955 12.09964,19.11832c0.18295,0.59875 0.82327,0.9397 1.42203,0.75674c0.60706,-0.18295 0.94803,-0.81497 0.76505,-1.42203c-2.73593,-9.00613 -7.29303,-15.2597 -12.76492,-20.15779c-0.46567,-0.4158 -1.18918,-0.37422 -1.60498,0.09148c-0.4241,0.46568 -0.38254,1.18918 0.08319,1.61328m-171.15835,-22.79395c-0.21622,-0.33263 -0.19958,-0.72348 -0.07484,-1.09767c0.17464,-0.55719 0.56549,-1.08942 1.04781,-1.51353c0.79834,-0.6902 1.89602,-1.19748 2.63615,-0.41577c0,0 15.77531,20.25758 15.77531,20.25758c0,0 -3.52595,3.1933 -3.52595,3.1933c0,0 -15.85017,-20.4239 -15.85017,-20.4239l-0.00831,0m103.95736,-15.02687c-1.23907,-4.94797 -2.76091,-10.41983 -4.55713,-16.44058c0,-0.0083 -0.00832,-0.0083 -0.00832,-0.01662c-0.26611,-0.84824 -0.28275,-1.46361 -0.03328,-1.94592c0.27443,-0.50728 0.79004,-0.83992 1.38045,-1.15591c8.923,-4.75671 18.24515,-8.66521 29.52985,-11.93336c0.54054,-0.158 0.95633,-0.18294 1.28897,-0.05821c0.35759,0.13306 0.59045,0.44078 0.79002,0.79001c0.31599,0.54054 0.54053,1.20583 0.78999,1.86278c0.96466,2.65279 2.98543,10.43648 4.30766,15.47594c0,0.00832 0.0083,0.01663 0.0083,0.02495c0.09981,0.36589 -0.16631,0.57379 -0.47401,0.75674c-0.44072,0.26611 -1.00621,0.45738 -1.58832,0.6237c-6.36169,1.86278 -24.99767,7.91678 -29.0808,10.61943c-0.98128,0.64864 -1.72139,1.07274 -2.35339,1.39706m51.43398,-106.76814c-0.64864,-0.06653 -1.27234,-0.03325 -1.87109,0.08318c3.89188,2.54467 5.72137,5.48849 4.85649,9.33046c-1.04779,4.6486 -2.85236,11.40945 -4.48227,15.925c-0.20789,0.59874 -0.86485,0.90642 -1.45528,0.69023c-0.59874,-0.21623 -0.90643,-0.86487 -0.69023,-1.45531c1.59666,-4.4407 3.37627,-11.08512 4.39914,-15.65889c0.74011,-3.28478 -1.37215,-5.53839 -5.07272,-7.64232c-0.19127,-0.11642 -0.46568,-0.12474 -0.77339,-0.12474c-0.45735,0 -0.97296,0.08317 -1.50519,0.19958c-0.56548,0.13306 -1.1559,0.29936 -1.68811,0.49063c1.48854,0.95632 2.52805,2.86068 2.75256,5.0145c0.22453,2.12888 -0.05821,7.3513 0.03326,13.6797c0.0083,0.63202 -0.49895,1.1476 -1.13097,1.16423c-0.6237,0.00833 -1.1476,-0.49896 -1.15591,-1.13097c-0.08316,-6.22862 0.2079,-11.37619 -0.01663,-13.4718c-0.09979,-0.93139 -0.39085,-1.81287 -0.85654,-2.49477c-0.37422,-0.55717 -0.87317,-0.98127 -1.48022,-1.08939c-1.70477,-0.31601 -3.63408,-0.45736 -5.20578,0.54884c-1.03949,0.66528 -1.88773,1.82952 -2.46152,3.70058c-0.80664,2.63617 -1.63824,5.20579 -2.09561,8.08309l0.85654,-0.24116c0.71518,-0.19128 1.11433,-0.74844 1.48024,-1.51351c0.50729,-1.06443 0.8815,-2.49476 1.39708,-4.19955c0.18295,-0.59874 0.82327,-0.93967 1.42201,-0.75673c0.59875,0.18294 0.9397,0.82326 0.75674,1.422c-0.54884,1.82951 -0.97296,3.35965 -1.51349,4.50724c-0.6902,1.45529 -1.58833,2.37003 -2.94383,2.74425c-7.63402,2.0873 -14.8855,4.09145 -22.57773,7.59245c-6.56956,3.00204 -13.86264,7.55917 -14.01234,19.50916c-0.07481,6.7442 1.33888,25.63799 2.82742,38.46947c7.39285,-3.70892 15.17657,-6.87727 24.17441,-9.61322l-5.61327,-22.6692c-1.48024,-5.16418 2.96878,-8.69014 5.62988,-10.14543c2.46982,-1.3555 14.22025,-6.59453 25.31367,-10.56955c1.39706,-1.25569 2.57791,-3.30972 3.61743,-5.28058c2.40329,-4.55714 4.49059,-9.41364 6.14546,-14.00403c1.13925,-3.15174 -0.62369,-5.04776 -1.38879,-5.98746c-1.18083,-1.44698 -3.25983,-3.40122 -4.70677,-4.48228c-0.37422,-0.28274 -0.8898,-0.5738 -0.96466,-0.6237m-13.38033,-66.40263c9.69638,6.38662 15.50922,15.20149 17.97072,25.55481c0.83159,3.48438 1.43867,9.87101 0.90645,15.79195c0,0.0499 0.00827,0.09148 0,0.14138c-0.19128,7.44274 0.19125,15.01023 2.54465,21.22224c0.22455,0.59042 -0.07483,1.24738 -0.66525,1.4719c-0.58212,0.22453 -1.24741,-0.07483 -1.47192,-0.66528c-1.42203,-3.76711 -2.17047,-8.01654 -2.50311,-12.44062c-2.1954,7.50929 -3.8253,11.11008 -5.21407,13.08927c0.69022,-0.09148 1.4054,-0.1081 2.14551,-0.01663c0.38251,0.0499 1.12263,0.39916 1.99582,1.04781c1.5717,1.17255 3.8253,3.2931 5.10597,4.86481c1.04782,1.28897 3.33466,3.90016 1.77127,8.20782c-1.68811,4.68185 -3.82529,9.63817 -6.27019,14.29509c-1.21413,2.3035 -2.66109,4.68185 -4.30765,6.08723c-0.10811,0.09148 -0.22452,0.158 -0.35757,0.20789c-11.00195,3.93344 -22.73575,9.14754 -25.19725,10.48639c-1.05612,0.58214 -2.51141,1.55508 -3.54259,2.90227c-0.9397,1.21413 -1.52182,2.7692 -0.98128,4.63196c0,0.01663 0.00832,0.03329 0.00832,0.04158l5.59662,22.59436l0.09146,-0.02495c1.13097,-0.33263 2.01247,-0.27441 2.71931,-0.0083c0.69853,0.2578 1.25572,0.7318 1.69646,1.35548c0.33263,0.48233 0.60706,1.05612 0.85654,1.67151c5.22241,-6.81906 11.85019,-16.12457 14.11212,-19.40935c0.41579,-0.60709 0.88147,-1.26402 1.38045,-1.95427c0,-0.02493 0.0083,-0.04988 0.01663,-0.07483c1.13095,-4.20786 3.11015,-8.02487 4.84816,-10.3367c-2.21202,-0.49065 -6.70262,-2.01245 -11.99985,-3.32637c-0.61539,-0.14969 -0.98961,-0.76506 -0.83994,-1.38045c0.158,-0.60706 0.77339,-0.98128 1.38878,-0.83159c5.4303,1.34718 10.00406,2.9189 12.12462,3.343c1.96254,0.40747 4.79826,-0.08316 6.67769,0.17464l0.02493,0c2.81079,-0.52391 6.21198,-1.18085 8.59866,-1.43033c0.59875,-0.05821 1.13928,-0.09149 1.61328,-0.09149c-0.4158,-1.13097 -0.4241,-2.32013 -0.10812,-3.63405c0.42413,-1.76299 1.51355,-3.77544 3.04367,-6.21201c3.79205,-6.04565 6.76083,-13.77948 6.46979,-20.41557c-0.18298,-4.20788 -1.70477,-7.95836 -5.28064,-10.43649c-2.79413,-1.94593 -6.72757,-5.90432 -8.74835,-8.2494c-1.67148,-1.93761 -2.88562,-5.36377 -3.71719,-9.29721c-1.83783,-8.69013 -1.91266,-19.94989 -2.19543,-21.82928c-1.64651,-11.07683 -9.5217,-22.00394 -20.30746,-27.11823m16.92291,110.9344c-0.29108,0 -0.57379,0.00832 -0.85655,0.01663c-0.01663,0.01663 -0.03325,0.02495 -0.04156,0.0416c-0.79834,0.79832 -1.72971,2.0956 -2.61951,3.71719c1.06441,-1.25569 2.11221,-2.41161 3.06854,-3.3513c0.14969,-0.1497 0.29941,-0.29106 0.44908,-0.42412m-48.73132,-110.26083c-1.67148,0.22453 -3.51762,0.44074 -6.11218,1.13097c-5.95421,1.5717 -10.46143,4.8565 -13.87929,9.88763c4.15796,-4.1247 10.39491,-8.03316 19.99147,-11.0186" fill="#065f46"/>
   </g>
   <path stroke="null" id="svg_23" fill-rule="evenodd" d="m324.561,304.12814c-1.43866,-6.34506 -3.06857,-13.23895 -9.52176,-18.61932c-6.85233,-5.71307 -13.1059,-16.82312 -11.63397,-27.86667c1.96255,-14.72751 7.41779,-29.89575 14.86887,-41.84573c-4.64859,11.59241 -8.09137,25.60472 -10.27847,35.50899c-0.90643,4.08313 -0.96466,7.4095 -0.89813,10.12047c0.27444,11.51755 5.77957,17.37198 11.43442,23.54239c5.29721,5.77124 6.27853,12.98947 6.02905,19.15988" fill="#065f46"/>
   <path stroke="null" id="svg_24" fill-rule="evenodd" d="m334.36545,256.42801c-2.04572,5.16422 -7.10181,8.58203 -10.03729,13.57993c-3.39291,5.77954 -2.41162,11.07681 0.5322,15.28467c2.17877,3.10184 2.90228,5.08932 3.35132,7.2681c1.25571,-2.53635 0.77338,-6.52798 -1.3555,-10.78577c-2.93549,-5.83777 0.59879,-10.50299 3.6424,-14.8522c2.40329,-3.44281 4.77332,-7.11014 3.86688,-10.49472" fill="#065f46"/>
  </g>
 </g>
</svg>
