<svg viewBox="0 0 375 375" xmlns="http://www.w3.org/2000/svg" preserveAspectRatio="xMidYMid meet">
 <g id="Layer_1">
  <title>Layer 1</title>
  <g stroke="null" id="svg_5" clip-path="url(#b13fe2e35a)">
   <path stroke="null" id="svg_1" fill-rule="evenodd" d="m194.76326,17.01114c-0.21301,0.02282 -0.89772,0.11412 -1.52158,0.1902c-8.81754,1.11075 -16.45586,7.8133 -21.95636,19.2936c-2.57146,5.37117 -1.98566,4.94513 -6.01022,4.29084c-15.86244,-2.57146 -29.38925,-0.0989 -38.47306,7.0449l-0.60104,0.47169l-0.98902,-0.31193c-8.64256,-2.75405 -18.99689,-0.03043 -25.52445,6.71777c-2.98229,3.07359 -4.11587,4.89187 -7.62309,12.24109c-0.16738,0.34996 -0.46408,0.82166 -0.6619,1.04988l-0.34995,0.41843l-0.66949,-0.41843c-0.35759,-0.22823 -1.21726,-0.79121 -1.90199,-1.25529c-9.10664,-6.1624 -19.22511,-5.33314 -28.80344,2.35082c-10.09566,8.10241 -16.3189,19.07297 -17.11012,30.15767c-0.54777,7.63071 2.39647,15.66463 7.81328,21.37054l1.21726,1.27052l-0.73795,0.08369c-5.35595,0.55537 -9.23597,5.75917 -8.41431,11.29009c1.63569,11.0162 15.64181,17.44487 39.53817,18.14481l4.97554,0.15215l0.32714,0.3804c0.18259,0.21301 0.48691,0.60863 0.68472,0.88251c0.56299,0.77602 3.23335,3.42355 4.39736,4.35172c7.12857,5.6983 17.39922,7.51659 30.13481,5.32552c1.43791,-0.24345 2.7845,-0.47929 3.00513,-0.51733c0.46408,-0.07608 0.75318,0.35757 2.77688,4.16151c3.9637,7.41769 5.85046,8.59691 14.23434,8.89362c5.56137,0.19781 7.98828,0.56299 8.84798,1.33899c0.53255,0.48691 -0.08369,1.21727 -2.7084,3.1801c-4.35933,3.26378 -6.17761,5.62222 -5.56897,7.21988c0.63905,1.67374 2.50299,1.68135 9.1523,0.02283c10.92491,-2.72362 15.61897,-1.81828 21.68245,4.18434c5.94939,5.88849 7.76004,12.02806 6.77863,22.94537c-0.61624,6.88513 -0.44887,12.86493 0.65428,22.30632c0.76842,6.61125 0.90533,8.30019 0.90533,11.05424c0.00761,6.25371 -1.19443,11.00864 -5.18855,20.49567c-4.07024,9.67725 -4.85385,13.57248 -4.49628,22.24548c0.23586,5.76675 0.14455,8.93924 -0.32715,11.78461c-1.38461,8.3154 -6.74057,19.12622 -12.29434,24.83212c-3.67461,3.77353 -5.99501,4.82339 -11.45747,5.21902c-5.5918,0.4032 -6.25368,0.48691 -8.33063,1.10312c-1.31615,0.39563 -4.01697,1.67374 -5.61462,2.66278c-1.09554,0.67709 -1.7498,1.11835 -5.88089,3.94849c-8.23174,5.63745 -15.17773,9.10663 -20.3587,10.15652c-4.31368,0.87491 -7.94264,0.60101 -13.70181,-1.01947c-15.48206,-4.35931 -21.32491,-3.98651 -48.62199,3.11163c-17.1786,4.46582 -31.60315,5.27228 -42.97695,2.40408c-2.28236,-0.57059 -3.03554,-0.37277 -2.85295,0.74557c0.10652,0.69995 0.388,0.84448 2.71601,1.40747c11.68571,2.83014 26.68845,1.94763 44.13335,-2.58667c16.66887,-4.32889 24.64954,-5.82004 31.13907,-5.82764c4.60277,-0.00763 6.02544,0.25867 17.34598,3.21051c8.25455,2.14542 14.02133,1.4455 22.49651,-2.73123c2.05413,-1.00424 2.76167,-1.40744 6.36018,-3.53006c1.64331,-0.97382 5.61464,-3.58331 7.88939,-5.18857c6.05588,-4.25281 8.65016,-5.23422 14.97992,-5.63745c6.81667,-0.43365 9.09143,-1.23248 12.6443,-4.40497c5.1962,-4.64841 10.14131,-12.79645 12.96384,-21.34012c1.74983,-5.29507 2.18347,-9.10663 1.90198,-16.70691c-0.35757,-10.05002 0.24345,-13.34424 4.16151,-22.59543c5.74394,-13.56487 6.36018,-17.94701 4.61798,-32.73674c-1.26289,-10.76517 -1.34659,-13.58008 -0.69232,-21.98679c0.951,-12.19545 -0.89772,-18.4187 -7.38724,-24.85497c-6.7558,-6.68733 -12.08133,-7.69157 -24.47458,-4.58755c-3.14966,0.79121 -5.47768,1.22487 -5.65265,1.0499c-0.34998,-0.35757 1.5596,-2.32042 4.14629,-4.26042c3.83438,-2.87578 4.83862,-4.38214 3.99414,-6.01784c-0.30432,-0.5782 -0.21301,-0.57059 1.74982,0.21303c7.40247,2.95946 16.29608,7.55463 20.33588,10.51408c0.22824,0.16737 0.86729,0.64668 1.42268,1.0575c0.54778,0.41844 1.14877,0.86731 1.33138,1.00424c2.80731,2.09218 7.02968,6.39063 9.3577,9.52507c1.36182,1.83351 1.81067,2.23672 2.49538,2.23672c2.16064,0 1.84111,-2.96707 -1.61287,-15.08644c-3.81915,-13.39748 -9.1599,-22.59541 -15.64182,-26.9243c-8.00349,-5.35594 -17.33836,-5.64505 -35.72662,-1.11075c-2.73883,0.67711 -5.0136,1.19444 -5.05922,1.1564c-0.03806,-0.04565 -0.95862,-1.95523 -2.03894,-4.25281c-2.0237,-4.28325 -3.2866,-6.77863 -4.98316,-9.81418c-1.84111,-3.30943 -2.66276,-4.83101 -5.27225,-9.73808c-1.40746,-2.66277 -1.86395,-3.46159 -3.97133,-7.05251c-0.47167,-0.80643 -1.14117,-1.97804 -1.49113,-2.6095c-0.34998,-0.63145 -0.77602,-1.38464 -0.9434,-1.67374l-0.30431,-0.53255l1.11836,0.25105c5.12771,1.11836 9.63158,3.08881 13.76266,6.01783c2.45734,1.74982 2.99751,1.9324 3.58332,1.20204c0.52493,-0.64667 0.31192,-1.164 -1.11836,-2.72361c-2.2139,-2.4041 -6.26891,-7.99588 -6.00262,-8.26216c0.02283,-0.02283 0.75318,-0.32713 1.62809,-0.67711c21.42381,-8.54364 29.76205,-24.43651 23.07473,-43.96596c-3.30945,-9.66962 -12.3324,-20.86843 -19.87181,-24.67237c-0.97382,-0.49451 -1.01945,-0.36518 0.44887,-1.33138c9.43378,-6.20803 20.57935,-7.89698 35.81032,-5.41681c4.45061,0.73036 4.90707,0.41083 7.50137,-5.2114c9.0838,-19.73485 24.62671,-24.01048 43.21278,-11.89112c8.7795,5.72113 15.96895,15.39075 19.84135,26.68085c1.19444,3.48441 2.3204,9.73809 1.75743,9.73809c-0.03804,0 -0.70753,-0.16737 -1.49115,-0.3804c-24.0257,-6.38301 -46.507,13.73986 -46.52983,41.62275c-0.0076,18.16002 9.97394,31.67921 29.38927,39.78922c0.27388,0.11412 0.1902,0.19781 -1.20966,1.19444c-5.94176,4.20715 -11.43465,6.63408 -17.2699,7.63071c-1.79546,0.30432 -1.71178,0.30432 -1.71178,0.02283c0,-1.7422 -2.3204,-9.09143 -4.09303,-12.94862c-4.1463,-9.04578 -9.68484,-15.43639 -16.05264,-18.53279c-15.50487,-7.54704 -21.44662,9.32726 -8.01111,22.76277c6.79385,6.79384 15.64944,10.86406 24.36046,11.19121l2.10738,0.08368l0.21303,1.66612c1.52917,12.02808 0.87491,21.18036 -3.14967,44.179c-1.164,6.66451 -0.85968,9.69244 1.08032,10.68146c2.25954,1.1564 4.51147,-1.03467 9.98915,-9.73048c6.91559,-10.97818 10.11089,-13.53442 20.49565,-16.38737c1.1488,-0.31192 2.11499,-0.54778 2.1378,-0.52495c0.02283,0.02283 -0.57819,0.47929 -1.33138,1.01186c-2.95186,2.07695 -4.29085,3.40071 -5.08968,5.00598c-2.93665,5.94176 6.42105,9.60115 18.28935,7.15901c10.43802,-2.15303 20.53369,-7.21988 26.74173,-13.41269c9.89023,-9.87505 8.5817,-19.76529 -4.17673,-31.5423l-1.24771,-1.1564l1.01947,-1.95522c1.74219,-3.33986 4.22238,-8.73386 5.80481,-12.61388c0.50974,-1.2477 0.95099,-2.29758 0.98141,-2.32802c0.03043,-0.03043 0.46408,0.15216 0.95859,0.40323c5.15814,2.58667 10.40759,2.85295 16.00699,0.81404c7.85895,-2.85297 15.72549,-9.38052 21.06625,-17.46009c6.79382,-10.30108 12.89536,-28.80345 13.73221,-41.63034l0.08371,-1.3466l1.28571,-0.45647c9.28925,-3.33986 21.43903,-2.88339 29.63272,1.11075c5.50052,2.68559 10.5217,6.71016 13.82352,11.0923c5.54617,7.35683 7.72961,18.8143 5.66788,29.76205c-2.66275,14.15826 -10.5141,25.67659 -22.04004,32.3335l-1.02707,0.59341l-1.32376,-1.31616c-2.26715,-2.23672 -4.30606,-3.69743 -7.17422,-5.14293c-7.78287,-3.91046 -17.23187,-3.88763 -23.82028,0.06847c-6.3602,3.81155 -5.28751,9.60876 2.3204,12.60626c6.96881,2.74644 17.2851,1.78786 27.34271,-2.54863c1.1564,-0.50212 2.12262,-0.89014 2.14545,-0.8597c9.26639,13.10077 6.85471,32.68347 -5.1962,42.24658c-8.52084,6.76341 -21.18796,8.98491 -32.47806,5.70592c-8.3002,-2.4117 -14.31042,-7.27315 -18.85995,-15.27664c-0.71512,-1.25529 -0.7912,-1.01945 0.7532,-2.44974c6.07867,-5.5918 8.83273,-10.39236 8.83273,-15.36792c0,-4.99078 -3.88763,-8.23935 -8.45236,-7.05251c-6.13196,1.58243 -8.49799,13.00948 -4.66364,22.48891l0.25867,0.63905l-0.89011,0.75319c-8.1861,6.89273 -20.57172,11.6781 -34.35721,13.28336c-9.90546,1.14879 -9.94351,1.16402 -14.71364,5.82004c-4.21478,4.11586 -4.54953,4.24519 -9.17513,3.49962c-11.84547,-1.90196 -21.44662,3.32465 -27.00038,14.69844c-3.21053,6.58083 -4.00935,13.05513 -2.87578,23.39424c0.83687,7.66115 0.73796,10.99344 -0.63144,20.71631c-0.951,6.7634 -0.99664,8.97729 -0.25868,12.02045c0.57059,2.34323 1.11076,3.73547 3.81155,9.87503c1.9248,4.38214 2.16826,6.71017 1.3542,12.92581c-1.67374,12.70517 0.5706,17.62747 9.12946,20.08481c4.67123,1.33899 8.30022,1.36182 21.17274,0.12173c13.99091,-1.34659 19.95547,-1.48355 27.7079,-0.63147c18.44913,2.03131 32.47809,9.03058 39.81967,19.8718c2.25195,3.33228 3.98654,5.28748 4.67886,5.28748c0.44125,0 1.02707,-0.36517 1.11835,-0.68469c0.14456,-0.55539 0.04565,-0.75317 -0.72275,-1.51398c-0.82925,-0.81403 -1.71936,-1.95523 -2.89099,-3.70505c-1.79547,-2.69318 -4.98315,-6.26889 -7.21228,-8.08716c-0.45645,-0.3804 -1.12595,-0.92816 -1.48352,-1.23248c-4.96796,-4.19196 -13.29099,-8.06436 -21.61401,-10.06525c-11.76178,-2.82251 -21.04341,-3.14966 -39.15018,-1.39984c-8.87079,0.85968 -9.91307,0.92816 -13.08556,0.94339c-2.65514,0 -3.27139,-0.03806 -4.70927,-0.28912c-9.93588,-1.77261 -12.31717,-5.69067 -10.71951,-17.68073c0.98903,-7.42529 0.63905,-10.33148 -1.94002,-15.98416c-3.98653,-8.75668 -4.21475,-10.36194 -2.84534,-19.85657c1.22487,-8.42194 1.37701,-14.20393 0.5782,-21.10431c-1.07272,-9.18271 -0.34236,-15.51248 2.50299,-21.65204c4.99837,-10.78036 13.8996,-15.75594 24.88541,-13.8996c5.02879,0.85208 6.45908,0.37277 10.35431,-3.48442c4.80058,-4.75493 4.99838,-4.84622 12.71277,-5.6983c15.50488,-1.71178 26.65042,-5.88089 36.70804,-13.73224c0.3728,-0.28909 0.69232,-0.50972 0.71515,-0.47929c0.02283,0.02283 0.34998,0.5706 0.72275,1.21727c6.28412,10.86406 16.26566,16.6993 29.53381,17.25468c14.02133,0.59341 26.17111,-5.67549 32.3183,-16.67648c5.83524,-10.43042 5.15814,-26.20157 -1.51398,-35.4071l-0.36517,-0.50972l1.04227,-0.63145c14.62238,-8.84798 23.47794,-24.71041 23.52359,-42.10204c0.02283,-9.68483 -2.23672,-16.94276 -7.41006,-23.77464c-3.53006,-4.67123 -10.84885,-9.92828 -17.03406,-12.22588c-7.74484,-2.89099 -19.40012,-2.95947 -27.60901,-0.16736l-1.11078,0.38039l-0.0076,-0.98141c-0.02283,-14.69844 -7.49377,-28.0731 -20.39673,-36.52546c-14.91147,-9.76852 -29.92181,-11.27489 -43.14432,-4.33649c-9.12186,4.78536 -16.56235,14.5691 -18.12198,23.80507c-0.06087,0.35757 -0.12173,0.4793 -0.15216,0.31953c-1.08032,-5.06686 -5.58418,-14.44738 -9.48701,-19.76529c-7.95787,-10.82602 -21.2108,-18.48716 -32.41722,-18.73822c-1.19443,-0.02282 -2.3356,-0.02282 -2.54103,0.00761m83.94539,12.45411c14.82779,1.92479 29.49579,11.95198 35.77228,24.44413c2.82254,5.62222 4.38977,12.12697 4.38977,18.2361l0,1.96284l-1.49878,0.7836c-5.43964,2.86817 -11.10748,8.37629 -15.10925,14.67561c-1.46069,2.30519 -1.81827,2.94426 -3.47681,6.20042l-1.74219,3.40833l-0.48691,-1.17922c-5.04404,-12.18784 -11.25208,-18.76865 -20.60214,-21.86505c-12.07373,-4.00175 -28.00464,0.05325 -37.54492,9.5555c-1.11836,1.11075 -1.00424,1.06511 -1.78786,0.72275c-1.62808,-0.72275 -4.34409,-1.4455 -6.62646,-1.77263l-1.11075,-0.15216l1.04988,-0.89012c6.0787,-5.15054 10.00438,-12.33238 10.00438,-18.28175c0,-0.23584 0.10651,-0.388 0.37279,-0.52495c0.85968,-0.44125 0.94337,-0.69991 0.82164,-2.6095c-0.47168,-7.36444 1.99327,-14.3713 7.31879,-20.77713c7.20467,-8.6806 19.12624,-13.38227 30.25655,-11.93677m-157.97771,19.75768c0.98902,0.12172 3.2942,0.60102 3.41592,0.70753c0.02283,0.02283 -0.44884,0.54016 -1.05748,1.14118c-14.28001,14.18871 -15.48204,41.9651 -2.82253,65.18436c0.45647,0.84447 0.79122,1.56721 0.73795,1.61287c-0.33473,0.33475 -7.41768,2.01608 -8.65015,2.05413l-0.68472,0.02282l-0.85967,-1.43028c-1.44551,-2.38127 -4.67125,-7.15141 -7.02209,-10.36954c-0.25866,-0.35757 -0.57821,-0.79883 -0.69231,-0.97382c-7.15141,-10.41519 -19.49139,-18.00787 -26.11788,-16.06024c-6.53516,1.9248 -7.69917,9.69244 -2.57146,17.20904c4.8158,7.06011 12.08133,11.69331 21.27925,13.56486l0.57821,0.12173l-0.36517,0.14454c-11.2825,4.59517 -16.007,15.5429 -11.09991,25.69183c0.35757,0.73035 0.66949,1.38463 0.69992,1.4455c0.06847,0.13695 -5.63744,0.01521 -8.80992,-0.18259c-13.05513,-0.80644 -24.56585,-4.70168 -29.06213,-9.8446c-6.77101,-7.74483 -1.56723,-17.74918 7.53181,-14.47019c2.38128,0.85208 3.26378,-0.7684 1.11074,-2.03131c-5.7972,-3.39311 -10.46083,-11.05424 -11.48791,-18.89037c-2.22149,-16.86668 15.57335,-39.05888 31.33689,-39.06648c4.22237,-0.00762 7.12857,0.98901 11.55637,3.9637c4.21476,2.83774 4.55714,2.6932 7.37965,-3.11162c3.30183,-6.76342 5.78199,-9.91309 9.99677,-12.69757c4.29084,-2.83774 10.66624,-4.35171 15.67985,-3.73547m9.6544,3.70504c7.80568,5.24183 14.84299,15.2462 17.58182,25.01472c2.89099,10.26304 0.75317,20.29784 -5.85808,27.56337c-0.85208,0.93577 -2.93663,2.83013 -4.43539,4.03217c-3.13445,2.5106 -8.95448,5.65266 -13.4279,7.2351c-1.18684,0.41843 -0.91295,0.68472 -2.55625,-2.41931c-7.22749,-13.67136 -9.7457,-29.68596 -6.79385,-43.15192c1.78785,-8.15566 5.08969,-14.34087 10.24783,-19.17188l1.3466,-1.27052l1.34661,0.6771c0.73795,0.37279 1.88675,1.04228 2.54863,1.49115m100.53058,10.20218c2.33565,0.27388 6.65692,1.20205 6.92319,1.48354c0.08368,0.09129 -0.31953,2.85296 -0.58582,3.98653c-1.27051,5.45484 -3.78873,9.15228 -9.6544,14.21152c-1.76503,1.52157 -2.01607,1.84111 -2.01607,2.51821c0,0.74557 0.55536,1.08031 1.97041,1.17922c2.28999,0.16737 4.5343,0.63145 6.95361,1.42267l1.36183,0.44886l-0.67712,0.85209c-7.18945,8.9697 -9.09142,20.96734 -5.04401,31.82378c0.89011,2.38127 2.5258,5.73634 3.46156,7.10577c0.32715,0.47168 0.34998,0.40321 -0.88251,2.03891c-2.68558,3.56049 -10.06522,11.15315 -11.2901,11.62485c-0.58582,0.22824 -8.20131,-3.61375 -11.87592,-5.98741c-14.71362,-9.51745 -20.67821,-25.63855 -16.18958,-43.77575c4.61038,-18.65453 20.54129,-30.92607 37.54491,-28.93279m39.40125,13.86156c11.10751,1.65092 18.16763,7.84373 23.83551,20.88364c1.60526,3.67461 1.9324,4.10065 3.07358,3.91807c0.85208,-0.13695 1.27811,-0.74557 3.31705,-4.7321c5.05164,-9.87504 10.59778,-16.32652 17.03403,-19.84137c1.30096,-0.70753 1.22488,-0.80644 0.98145,1.37703c-1.44553,12.86493 -6.81668,28.77301 -12.94864,38.35895c-6.85471,10.7119 -18.86755,18.723 -27.40359,18.25892c-2.95947,-0.15216 -8.61972,-2.0161 -8.32303,-2.73885c1.07272,-2.62471 2.73883,-9.31203 3.17249,-12.69755c1.24008,-9.76852 -2.76166,-18.71539 -8.76428,-19.61313c-5.65265,-0.83686 -9.39574,6.04827 -7.84372,14.43978c1.35419,7.34921 5.95697,15.67223 10.22498,18.49475c0.41846,0.27388 0.47171,0.36517 0.41083,0.69231c-0.25867,1.33139 -6.29932,14.62236 -7.42529,16.31892c-0.10651,0.16737 -1.52158,-0.92056 -7.24269,-5.53854c-7.83612,-6.32976 -12.2563,-10.7119 -15.6266,-15.49727l-0.28909,-0.41081l0.81404,-1.24769c7.28835,-11.24446 10.00436,-21.74333 7.94263,-30.72824c-0.82166,-3.55289 -2.93663,-6.87753 -5.42442,-8.52084l-0.55536,-0.36517l0.99663,-0.9586c6.0939,-5.84286 14.08218,-9.22836 23.82027,-10.09567c1.11078,-0.09889 4.9071,0.04565 6.22327,0.24345m-30.21852,14.24196c5.06685,5.18097 4.89188,16.60802 -0.40321,27.57098c-1.3542,2.7845 -4.22238,7.79809 -4.46584,7.8133c-0.30431,0.0076 -2.50299,-4.64081 -3.27899,-6.9384c-3.41594,-10.07283 -1.61287,-21.11188 4.70929,-28.8643c0.23582,-0.2891 0.5858,-0.72276 0.77599,-0.98141l0.35757,-0.45648l0.776,0.54016c0.42604,0.29671 1.11075,0.89013 1.52919,1.31616m-158.83743,1.89436c5.24184,1.11076 12.06612,5.65266 16.89711,11.25206c2.41932,2.79971 8.81756,11.80743 10.66628,15.01037l0.34235,0.58579l-2.76929,0.06848c-1.69655,0.03804 -3.23334,0.14455 -3.97131,0.27388c-2.54864,0.44126 -8.31542,-0.69231 -12.94863,-2.54865c-14.33324,-5.75156 -21.83461,-22.41283 -11.13794,-24.74844c0.57059,-0.12172 2.09217,-0.06847 2.92142,0.10651m184.02714,9.57834c3.17249,1.50635 5.57657,6.54278 5.87329,12.28673c0.18259,3.43877 -0.62387,8.04153 -2.44974,14.06696l-0.72275,2.38127l-0.84448,-0.75317c-6.51236,-5.76678 -10.63583,-18.21327 -8.15567,-24.59629c1.27054,-3.26378 3.7431,-4.59516 6.29935,-3.3855m-142.45004,17.97742c0.26629,0.43365 0.92816,1.46072 1.46833,2.27477c0.54778,0.82166 0.99663,1.52158 0.99663,1.55962c0,0.03804 -0.55537,-0.21303 -1.24008,-0.54778c-1.58244,-0.79121 -4.09306,-1.80307 -5.56136,-2.25191c-0.63145,-0.18261 -1.19444,-0.37279 -1.26292,-0.41084c-0.06086,-0.03804 0.59342,-0.25866 1.46072,-0.4869c0.87492,-0.22824 2.00848,-0.54778 2.53342,-0.72275c1.13358,-0.35757 1.01946,-0.40322 1.60526,0.58579m51.0489,0.54778c7.50137,1.41508 14.84299,8.97729 19.66638,20.25979c1.28574,3.01273 2.88339,8.17847 3.24857,10.5141l0.09129,0.54016l-1.38463,0c-11.84547,-0.00761 -26.11026,-9.89026 -29.25992,-20.26741c-1.49876,-4.95272 -0.60103,-8.9773 2.35844,-10.52169c1.58243,-0.82166 2.96707,-0.96619 5.27986,-0.52495m-63.16065,1.47592c0.0989,0.15977 0.53255,0.94337 0.97381,1.74982c0.44125,0.80644 1.09554,1.97806 1.46833,2.60951c2.35843,4.03977 2.89098,4.97555 3.58331,6.22323c0.42604,0.7684 1.31616,2.42693 1.97804,3.68983c1.47594,2.81491 2.33562,4.37453 4.8158,8.83275c1.78786,3.20293 6.4743,12.85733 6.32216,13.01709c-0.03044,0.02283 -0.73798,0.19781 -1.58244,0.37279l-1.52158,0.32713l-0.7608,-0.81404c-5.95696,-6.33736 -14.88862,-8.74146 -34.07571,-9.17511l-3.81915,-0.08368l-0.59342,-1.02707c-6.09393,-10.66624 -0.69992,-21.73571 12.33237,-25.31142l1.60526,-0.44125l3.31705,-0.01521c1.81828,-0.00761 3.68221,-0.05325 4.13869,-0.10652c1.49113,-0.16737 1.62807,-0.15976 1.81828,0.15216m124.97472,8.52082c2.83774,3.89525 8.05675,9.09143 13.83875,13.76266c1.50635,1.22487 5.85046,4.70929 6.1776,4.95274c0.18259,0.13693 0.88252,0.69992 1.55962,1.24768l1.23248,0.98903l-0.41083,0.72275c-3.07359,5.47008 -7.44812,11.6705 -11.62485,16.4863c-2.09218,2.4117 -2.13022,2.43451 -1.2477,0.64667c2.87579,-5.81242 2.9899,-11.64767 0.29671,-15.58856c-2.54103,-3.71265 -6.78624,-6.05588 -19.5903,-10.80319c-2.28998,-0.84448 -2.30519,-0.8597 -1.78024,-1.26291c2.26715,-1.77264 8.08717,-7.94263 10.50648,-11.15317c0.60863,-0.79883 0.46408,-0.79883 1.04228,0m94.69534,11.72375c5.03641,0.65428 9.39572,2.5106 13.32141,5.67549c0.95859,0.776 2.56384,2.35083 2.47256,2.43451c-0.85971,0.77602 -8.07199,3.14967 -11.81506,3.88763c-8.99252,1.76503 -18.23608,-0.22063 -20.15329,-4.33649c-1.99326,-4.29085 7.50137,-8.78711 16.17438,-7.66115m-107.84177,1.72699c0.37279,0.14455 2.26715,0.8597 4.20715,1.59006c11.88351,4.44299 15.74832,6.72536 17.59705,10.40758c2.85295,5.66788 -0.59343,14.76691 -7.92743,20.91408c-3.62135,3.04315 -5.4016,3.93327 -10.78796,5.40921c-6.95361,1.90196 -9.79895,3.26378 -13.53444,6.48192c-1.14117,0.98141 -2.91382,2.8073 -3.49202,3.59853c-0.13692,0.1978 -0.5782,0.78362 -0.9662,1.29333c-0.76839,1.01945 -3.10402,4.54192 -4.50386,6.78624c-3.33986,5.37117 -5.70592,8.3002 -6.60365,8.17087c-1.10313,-0.15977 -0.9738,-2.9899 0.49454,-11.44987c2.69318,-15.444 3.18768,-20.05438 3.18768,-29.83051c0,-6.93079 -0.07608,-8.40672 -0.61624,-12.30956c-0.11412,-0.83687 -0.12933,-1.19444 -0.03043,-1.22488c0.0761,-0.01521 0.76839,-0.12933 1.5444,-0.24344c6.31454,-0.94339 13.43552,-4.29085 20.06198,-9.44139c0.63145,-0.48691 0.54778,-0.47929 1.36943,-0.15216m-126.48109,7.11337c12.90297,0.48691 19.89462,2.1302 25.60052,6.01784c1.06512,0.72275 2.67038,2.09216 2.57148,2.18347c-0.36518,0.37277 -8.45237,1.32376 -11.23686,1.32376c-10.08044,-0.0076 -17.3764,-2.9975 -23.00624,-9.41095l-0.28909,-0.32713l1.49875,0.03804c0.82164,0.02281 3.00512,0.09889 4.86143,0.17497m167.19849,4.75493c10.87927,10.84885 10.36194,19.84137 -1.68137,29.50337c-7.41768,5.94937 -22.67149,11.11513 -30.59891,10.36955c-4.79297,-0.44887 -7.69917,-1.87154 -7.69917,-3.75069c0,-1.77264 1.552,-3.1877 9.15228,-8.34586c8.65016,-5.87328 14.14307,-11.08469 20.10764,-19.06535c0.60103,-0.80644 1.20206,-1.60527 1.33899,-1.78024c0.95099,-1.2477 3.89525,-5.7896 5.30269,-8.20129c0.41083,-0.69994 0.79883,-1.33899 0.86731,-1.43028c0.17499,-0.22824 0.81406,0.31192 3.21054,2.70079m-101.60332,-0.25867c13.03232,1.7346 20.15331,11.24446 26.34612,35.17886c0.82925,3.19531 1.24008,5.00598 1.10313,4.84622c-0.05324,-0.06087 -0.64667,-0.7684 -1.31616,-1.57483c-5.85806,-7.04491 -12.96384,-12.18024 -24.30719,-17.55901c-5.44725,-2.57907 -7.63071,-3.45398 -15.50487,-6.21564c-8.37628,-2.93665 -10.22501,-4.15392 -13.62572,-8.99252c-0.5782,-0.81404 -1.03468,-1.53679 -1.01186,-1.60527c0.10651,-0.34235 12.67474,-3.21053 16.15915,-3.68982c4.22238,-0.5782 9.47182,-0.74557 12.15739,-0.388m-30.52283,4.6256c0,0.54016 3.05077,4.56473 4.60278,6.07109c2.328,2.25954 4.31366,3.38551 9.05336,5.14293l2.65515,0.98141l-2.40408,-0.05325c-10.00436,-0.22824 -11.0999,-0.83687 -15.13208,-8.41432c-0.72275,-1.3542 -1.43028,-2.62471 -1.57483,-2.82253l-0.25107,-0.35757l0.98903,-0.21301c0.54016,-0.11412 1.1564,-0.25867 1.36182,-0.31953c0.51733,-0.13695 0.69992,-0.14455 0.69992,-0.01521m164.67265,1.94762c3.02032,1.11075 3.72787,4.98317 1.77264,9.63919c-1.164,2.74644 -3.31705,5.53093 -6.71014,8.65778l-1.22488,1.14117l-0.50974,-1.56721c-3.23334,-9.99677 0.54779,-20.13046 6.67212,-17.87093" fill="#065f46"/>
  </g>
 </g>
</svg>
