<svg viewBox="0 0 375 375" xmlns="http://www.w3.org/2000/svg" preserveAspectRatio="xMidYMid meet">
 <g id="Layer_1">
  <title>Layer 1</title>
  <g stroke="null" id="svg_25" clip-path="url(#04b3bbad5b)">
   <path stroke="null" id="svg_1" fill-rule="nonzero" d="m341.11389,10.57957c-0.16101,3.76311 -0.70346,7.50926 -1.40692,11.22151c-0.61023,-3.30543 -1.61032,-6.85665 -3.40714,-9.67898c0.49158,-1.24589 1.02554,-2.46636 1.58493,-3.66988c0.46613,-0.98314 0.9577,-1.98325 1.5849,-2.87316c0.18646,-0.26275 0.33054,-0.47463 0.58481,-0.72043c0.16104,-0.15255 0.30511,-0.26273 0.35596,-0.29662c0.04239,0.05084 0.11865,0.21187 0.24579,0.46614c0.07629,0.16104 0.16953,0.42377 0.24579,0.67804c0.22037,0.71193 0.12714,0.47463 0.17798,1.18655c0.09323,1.22895 0.08478,2.4579 0.03391,3.68683zm-2.83078,29.02844c-0.50854,6.4244 -1.62729,12.78946 -3.03424,19.06976c-1.36453,6.11081 -2.79688,12.42501 -4.94965,18.31547c-4.4581,12.17922 -9.74677,24.15504 -14.8829,36.06305c-2.77148,6.4244 -5.50058,12.94203 -8.85684,19.08673c-0.17798,0.32205 -0.36444,0.65262 -0.5509,0.98315c0.32205,-1.91545 0.7204,-3.82245 1.10181,-5.71246c1.44931,-7.25499 3.07657,-14.47608 4.73776,-21.67173c1.86462,-8.06017 3.78854,-16.09489 5.74637,-24.12115l4.78015,1.37302c0.58481,0.16104 1.10181,-0.21188 1.29675,-0.73736c5.23782,-14.16248 10.16208,-28.46058 14.12012,-43.03836c0.22882,-0.83059 0.45767,-1.66966 0.67801,-2.51719c-0.05084,0.97466 -0.11865,1.94088 -0.18643,2.90707zm-33.57977,95.47601c-0.05933,0.12712 -0.06781,0.06779 0,0zm17.30688,-54.39549l-3.91565,-1.12723l6.7634,-27.57065c1.8985,-7.7381 3.89023,-15.45923 6.08539,-23.12104c1.3476,-4.6954 2.67825,-9.50099 4.36487,-14.14553c0.42377,0.88145 0.77972,1.81375 1.09332,2.74603c1.13571,3.40715 1.74594,6.95837 2.00867,10.54348c-2.35617,10.53499 -5.48361,20.89201 -8.85684,31.13881c-2.38159,7.2211 -4.91577,14.3998 -7.54315,21.53613zm-26.32477,-7.55163c-0.54242,-0.15255 -1.15265,0.18647 -1.29672,0.73738l-1.44931,5.40734l-2.246,-0.63566c2.86472,-13.52684 6.97531,-26.98585 12.25549,-39.73293c3.66989,-8.88228 8.09409,-18.20529 14.92529,-25.12126c2.91556,-2.95793 6.27182,-5.53447 10.67059,-4.78863c2.40704,0.40682 4.13602,1.72052 5.4158,3.45799c-0.35596,0.95774 -0.69498,1.92393 -1.02551,2.88167c-2.78842,8.07709 -5.05136,16.34914 -7.21262,24.62118c-3.39017,12.95049 -6.54306,25.98574 -9.67896,39.01252l-20.35806,-5.8396zm13.99298,13.14545c-3.68683,15.77281 -7.4245,31.6643 -9.60269,47.73376c-0.33054,2.39008 -0.66107,4.81406 -0.69498,7.22955c0,0.35597 -0.00848,0.71194 0.02542,1.05943c-0.19495,0.27121 -0.26273,0.91537 -0.3475,1.22047l-24.80765,83.54254c-3.53427,-1.80525 -7.22955,-3.3817 -11.04352,-4.41571c-1.77985,-0.47462 -4.02585,-0.9323 -6.12775,-0.83907l37.35132,-139.90434l15.24734,4.37335zm-33.92725,147.21017c-1.26285,8.65344 -4.27164,17.1967 -6.9075,25.50264c-3.33932,10.50955 -6.90747,20.94284 -10.56039,31.34222c-1.22049,3.46646 -2.45789,6.92444 -3.7038,10.38245l20.95981,-70.5836l0.06781,0.03391c0.07626,0.03391 0.14407,0.07628 0.21188,0.11867c0.00848,0.05934 0.10172,0.22884 0.10172,0.32205c0.05933,0.96622 -0.03391,1.92393 -0.16953,2.88167zm-27.31638,80.49986c-1.71207,0.73737 -3.89026,-0.11865 -5.72095,-0.60175c-2.9664,-0.78824 -6.72104,-1.38998 -8.36526,-4.35638c-0.1102,-0.19495 -0.16953,-0.40683 -0.2373,-0.61871c0.05084,0.3136 -0.26276,0.16949 -0.15256,0c0.03387,-0.05087 0.06778,-0.11865 0.10168,-0.17798c-0.04236,-0.10172 -0.07626,-0.18646 -0.12714,-0.27124c0.05933,0.10172 0.09323,0.19495 0.12714,0.27124c0.27969,-0.60178 0.35599,-1.54254 0.517,-2.12735l21.93448,-82.16106c2.41553,-0.37292 5.43277,0.50006 7.44992,1.12723c3.40714,1.05096 6.48373,2.63586 9.64508,4.15298l-25.17209,84.76302zm-1.56796,5.28021c-0.71194,2.39856 -2.51721,8.42459 -2.68674,9.03482c-0.06778,0.26276 -0.19492,0.52548 -0.16101,0.47464c-2.18668,4.07669 -5.00052,7.93301 -7.4584,11.84021l-8.71277,13.84888c-0.03391,0.05933 -0.09323,0.13562 -0.16104,0.22885c-0.58481,-0.03391 -1.29675,0.15256 -1.99173,0.37292c0.06781,-0.12714 0.10172,-0.28818 0.10172,-0.46616l-0.517,-30.69809c-0.02545,-1.3476 0.54242,-2.66132 0.89838,-3.99194c1.53406,-5.62772 26.20612,-91.2298 26.74005,-92.98422c0.23734,-0.79669 0.61871,-1.40692 1.11029,-1.86459l-21.91751,82.10172c-0.27969,1.03403 -0.22885,1.72052 0.3136,2.75455c1.29672,2.43243 3.90717,3.87326 6.44135,4.6615c1.66116,0.517 3.39865,0.89838 5.08527,1.32217c1.17807,0.29663 2.4155,0.58478 3.63596,0.49155c0.04239,0 0.09323,-0.00845 0.13562,-0.01694l-0.85602,2.89014zm93.54358,-314.71057zm-0.517,-2.04259c-1.67813,0.43225 -2.70367,2.61891 -3.40714,4.0089c-0.61023,1.19504 -1.1442,2.42396 -1.65271,3.66986c-1.5849,-1.72898 -3.6275,-2.95793 -6.27185,-3.31389c-8.97549,-1.22047 -15.56091,8.57715 -19.6037,15.20496c-5.58533,9.14501 -9.54337,19.29015 -12.93356,29.42678c-2.61044,7.83979 -4.85641,15.80673 -6.74646,23.85839c-0.28815,1.23743 -0.57632,2.48333 -0.83908,3.7292c-0.11865,0.56786 0.16104,1.13572 0.73737,1.29675l3.22067,0.92382l-37.60559,140.86206c-1.50015,0.45767 -2.77145,1.37302 -3.5173,3.02574c-0.73737,1.64423 -1.10181,3.57664 -1.61032,5.30563c-1.20352,4.10213 -22.06161,76.16042 -25.51961,88.83971c-0.38986,1.45779 -0.9662,2.92404 -0.97467,4.43268c-0.00848,1.72897 0.05933,3.46646 0.08475,5.19543l0.43225,25.62131c0.00847,0.45767 0.25426,0.76279 0.57632,0.90686l-0.1017,0.02542c-0.32207,0.07629 -0.66956,0.39838 -0.73737,0.73737l-1.98326,11.45035c-0.6526,0.81366 -1.40692,1.54254 -2.29684,2.05106c-2.27142,1.28827 -5.1785,0.56787 -7.5262,-0.11017c-2.74605,-0.78821 -5.38191,-1.94089 -8.14491,-2.68674c-12.8149,-3.47491 -26.01117,0.4577 -38.85995,1.56796c-3.27153,0.28818 -6.56001,0.39835 -9.83153,0.17801c-3.40714,-0.23734 -6.75494,-0.89841 -10.06885,-1.729c-6.56,-1.65271 -12.98439,-3.92413 -19.7139,-4.83102c-7.15329,-0.96619 -14.2981,-0.02542 -21.36662,1.07639c-7.25499,1.12726 -14.51846,2.11887 -21.84125,2.72064c-14.55237,1.19504 -29.20642,1.15265 -43.7503,-0.1441c-1.77985,-0.15256 -3.56817,-0.33054 -5.34801,-0.52548c-1.3476,-0.15256 -1.33065,1.95786 0,2.11041c14.73034,1.61032 29.57934,1.95782 44.36053,1.01706c7.38213,-0.46616 14.73881,-1.25439 22.05313,-2.3562c7.27195,-1.09332 14.56931,-2.52567 21.95991,-2.15274c7.02615,0.34747 13.73871,2.59348 20.4767,4.43265c6.56,1.78833 13.09457,2.85623 19.90884,2.53415c13.14543,-0.62717 26.52817,-5.14459 39.68207,-2.29684c2.91556,0.6272 5.65314,1.75443 8.48393,2.67825c2.61893,0.85602 5.4921,1.64423 8.26357,1.16962c4.84796,-0.82211 7.22957,-6.24643 9.06026,-10.20447c0.49158,-1.0679 0.9747,-2.1358 1.50864,-3.18677c0.3475,-0.64413 -0.01694,-1.24588 -0.52548,-1.48318c-0.44919,-0.22037 -1.00858,-0.15256 -1.29672,0.41528l-2.01718,3.77158l0.74585,-4.28857c1.46625,-0.26273 3.29697,-0.41528 4.12753,-1.60187c1.09335,-1.5849 2.05109,-3.27151 3.0766,-4.8988l10.34006,-16.45087c1.08487,-1.72897 2.61044,-3.50882 3.27151,-5.45819c0.50006,-1.50015 0.89841,-3.04269 1.3476,-4.5513l2.69522,-9.06876c1.9324,-1.44928 2.82233,-4.24619 3.65292,-6.51761c0.91534,-2.50027 1.81372,-4.99207 2.71213,-7.49231c7.08548,-19.72238 14.39981,-39.58884 19.59525,-59.91299c0.79669,-3.11049 1.64426,-6.31421 1.85614,-9.53488c0.11865,-1.91545 -0.21188,-2.99184 -1.87308,-3.89871l24.90088,-83.88158c0.12714,-0.43224 0.32208,-0.88144 0.39835,-1.33064c0.04239,-0.27121 0.05084,-1.09332 0.06781,-0.51698c-0.03391,-1.1442 0,-2.27144 0.10172,-3.41562c0.99161,-11.94192 3.81393,-23.84994 6.34811,-35.5291c1.27979,-5.86503 2.61044,-11.72157 3.97498,-17.56963c0.13562,-0.55937 -0.16949,-1.13572 -0.73737,-1.29675l-16.23898,-4.66148l1.1781,-4.39878l19.40033,5.56838l-2.20364,9.16197c-3.41559,14.21334 -7.04309,28.49448 -9.4501,42.93666c-0.19495,1.17809 -0.92383,4.05125 1.11026,4.01735c1.44931,-0.02542 2.4494,-2.30533 3.03421,-3.33932c1.48322,-2.61891 2.763,-5.35649 4.02585,-8.07711c6.74646,-14.54387 12.7471,-29.44373 18.72229,-44.30967c3.28848,-8.19578 5.43277,-16.84073 7.20413,-25.4857c1.83917,-9.0094 3.18677,-18.40022 2.53415,-27.63845c0.92383,-4.14449 1.70358,-8.33136 2.23752,-12.54367c0.19495,-1.551 2.17819,-14.55235 -2.87317,-13.23865" fill="#065f46"/>
  </g>
  <path id="svg_27" fill-rule="nonzero" d="m324.64063,140.94531c0.00781,0.02344 0.01563,0.05469 0.02344,0.08203c-0.00391,-0.02344 -0.01172,-0.04688 -0.02344,-0.08203" fill="#065f46"/>
 </g>
</svg>
